<?xml version="1.0" encoding="UTF-8"?>
<svg id="Layer_1" xmlns="http://www.w3.org/2000/svg" version="1.1" viewBox="0 0 2000 2000">
  <!-- Generator: Adobe Illustrator 30.0.0, SVG Export Plug-In . SVG Version: 2.1.1 Build 123)  -->
  <defs>
    <style>
      .st0 {
        fill: #211f5d;
      }
    </style>
  </defs>
  <g>
    <g>
      <path class="st0" d="M821.34,1719.88c-4.91.34-5.47.77-5.47,6.16v22.48c0,7.99-1.2,12.61-5.81,16.67-2.18,2.01-4.4,3.16-6.07,3.68l-.81-1.88c3.55-1.67,5.43-4.49,6.11-8.17.56-3.16.68-6.88.68-12.05v-20.73c0-5.39-.6-5.81-5.73-6.16v-1.88h17.1v1.88Z"/>
      <path class="st0" d="M875.72,1753.1c-4.1,5.17-8.68,6.28-10.73,6.28-7.82,0-12.44-6.28-12.44-13.25,0-4.15,1.5-7.91,4.06-10.69,2.74-2.99,6.2-4.79,9.57-4.79h.04c5.43,0,9.75,4.66,9.75,9.61,0,1.2-.34,1.75-1.49,2.01-1.16.17-9.11.81-16.46,1.07.13,8.08,4.87,11.5,9.28,11.5,2.61,0,5.05-.98,7.35-3.12l1.07,1.37ZM864.69,1733.01c-2.74,0-5.47,2.44-6.37,7.65,3.38,0,6.75,0,10.3-.13,1.11-.04,1.49-.39,1.49-1.2,0-3.29-2.05-6.33-5.38-6.33h-.04Z"/>
      <path class="st0" d="M951.54,1733.05c-3.21.51-3.76,1.24-5.09,4.57-1.92,4.92-4.79,13.29-7.78,21.72h-1.88c-2.65-6.71-5.3-12.87-7.82-19.07-2.43,6.24-5,12.4-7.48,19.07h-2.01c-2.31-7.39-4.79-14.75-7.4-22.23-1.11-3.16-1.67-3.68-4.66-4.06v-1.67h13.55v1.67c-3.8.64-4.1,1.02-3.16,3.8,1.41,4.62,2.99,9.4,4.53,13.93h.13c2.39-5.81,4.74-12.14,7.35-19.11h1.79c2.39,6.28,5,12.82,7.65,19.36h.13c1.24-3.89,3.12-9.53,4.23-13.93.81-3.04.38-3.51-3.68-4.06v-1.67h11.58v1.67Z"/>
      <path class="st0" d="M1004.53,1753.1c-4.1,5.17-8.68,6.28-10.73,6.28-7.82,0-12.44-6.28-12.44-13.25,0-4.15,1.5-7.91,4.06-10.69,2.74-2.99,6.2-4.79,9.57-4.79h.04c5.43,0,9.75,4.66,9.75,9.61,0,1.2-.34,1.75-1.49,2.01-1.16.17-9.11.81-16.46,1.07.13,8.08,4.87,11.5,9.28,11.5,2.61,0,5.05-.98,7.35-3.12l1.07,1.37ZM993.51,1733.01c-2.74,0-5.47,2.44-6.37,7.65,3.38,0,6.75,0,10.3-.13,1.11-.04,1.49-.39,1.49-1.2,0-3.29-2.05-6.33-5.38-6.33h-.04Z"/>
      <path class="st0" d="M1035.74,1758.65v-1.67c3.97-.47,4.53-.81,4.53-5v-29.32c0-4.23-.43-4.36-4.36-4.74v-1.54c3.42-.38,7.53-1.45,9.83-2.18v37.79c0,4.23.56,4.62,4.7,5v1.67h-14.71Z"/>
      <path class="st0" d="M1081.39,1758.65v-1.67c3.97-.47,4.53-.81,4.53-5v-29.32c0-4.23-.43-4.36-4.36-4.74v-1.54c3.42-.38,7.53-1.45,9.83-2.18v37.79c0,4.23.56,4.62,4.7,5v1.67h-14.71Z"/>
      <path class="st0" d="M1151.15,1753.1c-4.1,5.17-8.68,6.28-10.73,6.28-7.82,0-12.44-6.28-12.44-13.25,0-4.15,1.5-7.91,4.06-10.69,2.74-2.99,6.2-4.79,9.57-4.79h.04c5.43,0,9.75,4.66,9.75,9.61,0,1.2-.34,1.75-1.49,2.01-1.16.17-9.11.81-16.46,1.07.13,8.08,4.87,11.5,9.28,11.5,2.61,0,5.05-.98,7.35-3.12l1.07,1.37ZM1140.12,1733.01c-2.74,0-5.47,2.44-6.37,7.65,3.38,0,6.75,0,10.3-.13,1.11-.04,1.49-.39,1.49-1.2,0-3.29-2.05-6.33-5.38-6.33h-.04Z"/>
      <path class="st0" d="M1193.81,1737.41c2.09-3.42,4.7-6.75,7.65-6.75,2.31,0,3.85,1.67,3.85,3.21,0,1.45-.85,2.74-2.22,3.38-.77.3-1.32.17-1.71-.17-.98-.9-1.71-1.28-2.78-1.28-1.63,0-3.55,1.84-4.91,5.17v11.16c0,4.11.3,4.49,5.26,4.87v1.67h-15.18v-1.67c3.85-.38,4.4-.77,4.4-4.87v-12.95c0-3.97-.34-4.23-3.89-4.74v-1.41c3.16-.51,6.15-1.24,9.4-2.56v6.97h.13Z"/>
      <path class="st0" d="M1267.15,1733.05c-3.38.51-3.93,1.02-5.64,4.62-1.58,3.16-3.63,8.42-8.04,18.55-4.32,9.96-5.69,13.51-6.75,17.06-.3,1.2-1.11,1.49-1.96,1.49-1.84,0-3.8-1.54-3.8-3.2,0-1.03.55-1.58,1.62-2.31,2.18-1.28,3.42-2.69,4.96-5.51,1.11-2.05,1.63-3.29,1.88-4.02.38-.94.26-1.79-.13-2.82-2.69-7.39-5.64-15.17-7.39-19.28-1.37-3.25-2.05-4.06-5.47-4.57v-1.67h13.42l.09,1.67c-2.95.51-3.33,1.07-2.52,3.33l5.73,15.3c1.71-3.93,4.45-11.33,5.69-15.09.81-2.31.3-3.04-3.25-3.55v-1.67h11.58v1.67Z"/>
      <path class="st0" d="M1297.2,1759.38c-2.1,0-3.68-1.45-3.68-3.85,0-2.1,1.58-3.72,3.76-3.72s3.72,1.62,3.72,3.72c0,2.39-1.54,3.85-3.72,3.85h-.09Z"/>
      <path class="st0" d="M1367.47,1748.57c-.43,2.14-1.75,8.17-2.39,10.09h-29.49v-1.79c5.47-.38,6.03-.81,6.03-6.28v-24.53c0-5.43-.43-5.81-5.73-6.16v-1.88h17.31v1.88c-5.04.34-5.64.68-5.64,6.16v24.32c0,3.42.3,4.62,1.5,5.26,1.24.68,3.42.81,5.94.81,3.38,0,5.64-.38,7.1-2.01,1.2-1.2,2.39-3.25,3.46-6.24l1.92.38Z"/>
      <path class="st0" d="M1430.99,1748.57c-.43,2.14-1.75,8.17-2.39,10.09h-29.49v-1.79c5.47-.38,6.03-.81,6.03-6.28v-24.53c0-5.43-.43-5.81-5.73-6.16v-1.88h17.31v1.88c-5.04.34-5.64.68-5.64,6.16v24.32c0,3.42.3,4.62,1.5,5.26,1.24.68,3.42.81,5.94.81,3.38,0,5.64-.38,7.1-2.01,1.2-1.2,2.39-3.25,3.46-6.24l1.92.38Z"/>
      <path class="st0" d="M1502.83,1747.93c-.85,2.99-2.61,7.91-3.72,9.92-1.88.43-7.53,1.79-12.27,1.79-16.5,0-23.85-10.9-23.85-20.77,0-13.17,10.64-21.8,25.47-21.8,5.47,0,10.09,1.5,11.88,1.79.51,3.55.98,6.24,1.37,9.79l-1.93.43c-1.75-6.92-6.02-9.66-12.99-9.66-10.9,0-16.71,8.81-16.71,18.12,0,11.8,7.22,19.66,17.27,19.66,6.63,0,10.26-3.55,13.63-10l1.84.73Z"/>
    </g>
    <g>
      <path class="st0" d="M768.65,1684.2c-29.6,21.59-56.62,45.75-76.06,77.49-2.86,4.72-5.43,10.01-7.01,15.3-1,3.57-.14,7.86-.14,11.87,3.72-1.29,7.72-2,10.87-4,3.43-2.14,6.58-5.29,9.15-8.44,14.15-18.3,28.45-36.46,42.03-55.04,8.29-11.44,15.44-23.73,23.16-35.6-.71-.43-1.29-1-2-1.57ZM761.79,1695.78c-5,8.15-10.29,16.44-16.01,24.31-11.87,16.16-24.45,32.31-36.6,47.9l-5.43,7.01c-2.57,3.43-5.58,6.15-8.58,8.01-2,1.29-4.43,2-7.01,2.72-.14,0-.43.14-.72.14v-.86c-.14-2.72-.43-5.29.29-7.43,1.43-4.72,3.72-9.72,6.72-14.73,16.16-26.45,38.46-49.47,71.77-74.06-1.43,2.29-3,4.58-4.43,7.01Z"/>
      <path class="st0" d="M1503.82,1588.41l-3.86,2.29c-1.86,1.14-3.57,2.29-5.43,3.43-2.86,2-5.86,4.15-8.72,6.29-5.86,4.43-11.87,8.86-18.16,12.3-13.44,7.15-26.74,13.15-39.32,17.44-3.72,1.29-6.72,1.14-8.43-.43-1.72-1.57-2.14-4.86-1-8.72,3.14-11.58,7.58-22.45,13.01-35.46.57-1.29,3.72-2.43,5.72-3.15l.86-.29c3.72-1.43,7.58-2.72,11.44-4,7.58-2.43,15.58-5,22.59-9.15,15.87-9.15,24.45-23.73,24.88-42.18.14-7.29-2.57-13.15-7.29-16.01-4.58-2.72-10.44-2.43-16.58,1-8.01,4.58-18.16,10.87-24.73,19.59-13.44,17.87-24.16,34.6-32.74,51.18-5.29,10.15-11.44,20.87-20.59,29.88-2.29,2.29-4.43,4.57-6.58,6.86-2.29,2.43-4.58,5-7.01,7.29l-7.29,7.15c-17.16,16.58-34.74,33.74-52.33,50.33-2.86,2.72-6.43,4.72-10.01,6.86-1.29.71-2.57,1.43-3.86,2.14l-.86-.57c.43-1.43.86-2.72,1.14-4.15,1.14-3.86,2.14-7.72,4-10.87,14.44-25.02,29.17-49.61,40.46-68.06,3-5,4-9.29,3-13.01-1-3.57-3.72-6.58-8.43-9.15-1.14-.57-2.14-1.14-3.57-1.72.43-.29.71-.57,1-.86,2.29-2.14,4.29-4,6.29-6.01,2.43-2.57,4.72-5.15,7.15-7.58,8.15-8.58,16.44-17.44,24.16-26.74,4-4.72,11.44-13.73,4.72-22.73-5.43-7.01-13.44-5.72-20.44-4.43-1.14.14-2.14.29-3.29.43-.86.14-1.72.57-2.29.86-24.88,12.87-40.03,33.31-45.32,60.62-.43,2.43.14,4.72.71,7.01.29,1.43.71,2.72.71,3.86.14,2.43-.14,4-.14,4.15-13.44,9.01-27.31,18.16-41.89,26.59-1.43.86-4.29.57-7.01.14-.86-.14-1.57-.14-2.29-.29v-2.14c.14-3.15.29-6,1.29-8.29,2.86-6.72,7.29-13.01,10.29-17.01,9.72-13.15,19.73-26.31,29.74-38.89,2.57-3.15,7.72-9.72,0-15.87-7.86-6.43-14.01.43-15.87,2.72l-2.43,2.72c-6.72,7.72-13.73,15.58-21.02,22.73-16.73,16.16-35.03,33.46-56.33,53.04-2.14,1.86-4.86,3.29-7.72,4.72-1,.43-1.86.86-2.86,1.43l-.29-.29c.57-1.29,1-2.43,1.43-3.72,1.43-3.57,2.86-7.01,4.86-10.01,14.73-22.16,29.88-44.18,44.03-64.77,2.86-4,5.72-8.01,8.58-11.87,3.43-4.86,7.15-9.87,10.58-15.01,1.29-2,1.14-5.43.71-7.29-.43-1.29-1-2.14-1.86-2.57-2.86-1.43-6.86-1-9.29-.14-2.14.57-3.43,2.57-4.58,4.29l-.71,1c-10.29,14.58-20.59,29.17-30.88,43.89l-20.44,28.88c-.57.86-1.14,1.72-1.72,2.57-1.43,2.14-2.57,4.15-4.29,5.29-20.87,15.3-45.75,33.17-70.91,50.61-4.29,2.86-10.01,4.29-15.16,5.58-2.14.43-4,.29-4.72-.43-.86-.86-.86-2.57-.14-4.72,1.72-5.86,3.43-11.87,6.43-17.01,10.01-17.16,20.02-34.17,30.17-51.33,8.15-13.87,16.3-27.74,24.3-41.6,3.43-5.86,7.29-8.15,13.87-8.44,8.86-.29,17.73-1.57,26.31-2.72l5.72-.71c1.86-.29,3.57-1.14,5-2,.43-.29,1-.71,1.57-.86l1.72-.86-1.72-6.43-39.18,3.43,16.16-22.59.86-1c1.43-2,3-4.15,2.57-6.72-.29-1.72-1.43-3.43-3.72-4.86-7.01-4.72-10.87,1-12.44,3.15l-2.86,4.29c-5.72,8.43-11.72,17.3-18.01,25.59-1.72,2.29-5,4.43-7.72,4.86-6.58,1.14-13.44,1.86-20.16,2.57-4.72.43-9.44,1-14.3,1.57-2.14.43-4.29,1.29-6.29,2.14-.71.43-1.57.71-2.43,1.14l-1.86.72,2,6.58,40.03-3.72-.14.29c-1.29,2-2.14,3.57-3.14,5.15-2.72,4.43-5.58,8.72-8.29,13.01-6.15,9.29-12.3,18.87-17.59,28.88-10.72,20.59-28.17,33.88-42.32,43.18l-2,1.29c-6.43,4.29-11.29,7.15-15.01,3-2.29-2.57-1.72-11.87,1-17.16,8.01-15.44,17.44-30.02,28.02-46.04,2.57-4,6-7.72,9.15-11.29,2.29-2.57,4.58-5.15,6.72-7.72,2.29-3.14,3.14-5.72,2.29-8.01-.71-2.14-2.86-3.72-6.29-4.43-2-.57-4.15-2.14-5.29-3.72-8.15-11.87-18.3-14.73-30.31-8.58-8.29,4.29-14.3,8.72-18.44,13.73-10.44,12.72-20.59,26.02-30.45,38.89-3,4.15-6.15,8.29-9.29,12.3-1,1.43-1.86,2.86-2.72,4.29-1.14,1.86-2.29,3.72-3.57,5.15-19.87,20.16-36.46,36.89-52.33,52.33-2.72,2.72-6,5-9.44,7.29-1,.71-2.14,1.57-3.14,2.29,0-.71.14-1.43.14-2.14.29-2.72.43-5.29,1.29-7.58,1.14-3.29,2.29-6.72,3.43-10.15,3.29-10.29,6.72-20.73,11.72-30.31,8.44-16.16,17.59-32.17,26.45-47.75,6.29-11.01,12.87-22.45,19.01-33.88.57-1.14,1.43-2.29,2.14-3.43,3.86-6.29,9.15-14.87.43-21.45-7.86-6.15-15.16,1.57-20.02,6.58-.71.72-1.43,1.43-2.14,2-24.45,24.02-48.04,47.9-70.2,70.91-7.43,7.72-14.3,16.16-21.02,24.31-1,1.14-2,2.29-2.86,3.43.57-1.72,1.43-3.57,2.29-5.43,1.57-3.29,3.15-6.58,4.86-10.01,6.15-12.72,12.72-25.88,17.44-39.6,1.72-5.15,3.15-10.72.71-15.73l-.71-1.57-1.57.43c-10.01,1.86-13.3,9.58-16.44,17.16l-1.57,3.72c-3.86,9.15-7.86,18.59-12.3,27.59-2.43,5.29-6.15,10.01-10.01,13.01-14.58,11.44-29.74,22.73-44.32,33.6l-12.58,9.29c-.14.29-.43.43-.57.57.43-1,1-2,1.57-2.86l9.72-17.16c8.86-15.44,18.01-31.45,26.74-47.32,1.29-2.57,1.57-5.58,1.72-8.43.14-1.14.14-2.43.43-3.57l.43-3.15-5.72,1.43c-2.57.57-5.15,1.14-8.01,1.72-4.29-8.58-9.01-13.3-14.73-15.16-6.15-1.86-13.15-.29-22.3,5-6.43,3.57-11.44,7.29-15.44,11.29-3.29,3.29-6.29,6.86-9.15,10.29-3.43,4.15-7.01,8.43-11.15,12.15-13.01,11.72-27.74,24.16-46.47,39.17-2,1.57-6.86,2-7.86,1.29-1.72-1.43-2.86-6-2.43-8.86,1.29-7.01,3.29-12.87,6.15-17.59,8.58-14.16,17.59-28.45,26.31-42.18,3.14-5,6.43-10.01,9.58-15.01l.86-1.29c1.57-2.43,3.43-5.15,2.72-8.01-.43-1.72-1.72-3.14-3.72-4.15-3.43-1.86-10.15,1.72-12.44,4.86-2,2.72-4.15,5.43-6.29,8.15-7.15,9.44-14.73,19.02-19.3,29.88-8.86,21.02-24.73,36.17-51.47,48.75-9.15,4.43-18.3,8.72-27.45,12.87-1.29.57-2.86,1-4.15,1.29-2.86-6-5.58-12.01-8.29-17.87-7.58-16.01-14.58-31.17-21.59-46.75-3.86-8.72-7.43-18.44-11.58-31.45-6.72-21.3-1.72-41.03,15.44-60.48,4.86-5.72,11.58-10.58,18.3-13.44,4.43-1.86,8.43-1.72,11.01.43,2.72,2.29,3.57,6.43,2.29,11.44-1,4.29-2.86,8.44-5,12.87-.71,1.57-1.43,3.14-2.14,4.72-.72,1.72-1.57,3.29-2.72,5.29-.57,1-1.14,2.14-1.86,3.43l-1.57,2.72,3.29.43c9.44.86,12.01-5,14.01-9.29.43-.86.71-1.72,1.14-2.43,8.43-14.87,8.43-28.88.29-36.6-8.58-7.86-24.31-6.86-38.32,2.57-25.45,17.01-37.46,49.9-29.45,79.78,2.14,7.72,5,15.87,9.58,26.31,4.72,11.01,9.58,21.87,14.58,32.74,4.15,9.15,8.15,18.3,12.15,27.45,1.43,3.15,2.43,6.43,3.43,9.87.29,1,.57,2.14.86,3.15l-1.43.43c-2.29.57-4.29,1.14-6.15,1.86-6.43,2.29-13.01,4.58-19.59,6.86-16.3,5.58-33.03,11.29-48.9,18.44-13.15,5.86-25.59,14.73-35.17,25.02-11.44,12.44-15.58,29.02-11.01,44.61,4.72,16.01,17.59,28.02,34.31,32.17,24.45,6.15,47.9-1,69.77-21.16,27.02-25.02,39.03-57.33,35.74-95.93-.43-5.29.43-6.72,5.43-9.01,13.44-6,26.74-12.87,39.6-19.44,4.15-2.14,8.15-4.15,12.15-6.15,1.86-1,3.57-2.14,5.72-3.43-.14,1.43-.14,2.43-.29,3.57-.43,9.15,1.86,15.73,6.43,19.01,3.14,2.29,8.86,3.86,18.44-.14,7.43-3.29,14.16-7.86,20.73-12.44,2.72-1.86,5.43-3.72,8.15-5.43,1.43-.86,2.72-1.86,3.72-2.72.29,1.14.57,2.14.86,3.29,1.43,5.15,2.57,9.58,6,11.01,5.43,2.14,14.01-.14,19.02-3.57,11.01-7.58,21.73-16.01,32.03-24.16,2.72-2.14,5.58-4.43,8.29-6.58,2.29-1.72,4.29-3.57,6.29-5.43,0,.29-.14.43-.29.57l-9.72,16.59c-9.87,16.73-20.02,34.03-30.31,50.76-3.29,5.43-8.01,10.44-13.01,14.3-23.88,17.73-49.04,37.17-69.2,62.05-10.58,12.87-22.45,27.45-26.16,46.18-1,5,.43,12.72,4,15.58,1.86,1.57,5,2.29,8.15,2.29s6.15-.71,8.15-2.14l1-.71c9.58-6.72,19.3-13.58,26.16-22.73,16.73-22.59,33.03-46.18,48.75-68.91,6.43-9.29,12.87-18.59,19.44-28.02.86-1.14,1.72-2.43,2.43-3.72,2.14-3.29,4.15-6.43,6.72-8.43,18.44-14.3,37.32-28.59,55.62-42.32l11.58-8.58c-.43,1-1,2.14-1.43,3.14-2.72,6.43-5.72,13.01-8.01,19.73-.86,2.57-.14,5.43.43,8.01.29,1.14.43,2.14.57,3.14l.43,3,2.72-1.29c.86-.43,1.86-.86,2.86-1.29,2.43-.86,4.86-1.86,6.72-3.72,13.3-15.16,26.59-30.17,39.75-45.32,17.87-20.3,36.17-41.18,54.47-61.62,5-5.72,11.01-10.72,16.87-15.73,1.57-1.29,3.29-2.72,4.86-4.15-1.14,2.57-2.43,5-3.86,7.43-3.57,6.29-7.29,12.3-11.01,18.44-7.72,12.87-15.73,26.02-22.3,39.6-10.15,20.73-18.16,42.61-25.16,61.91-4.29,11.58-2.86,19.59,4,23.88,9.01,5.72,17.16-1.57,22.59-6.43l.43-.43c10.44-9.44,20.59-19.73,30.45-29.59l6.58-6.58c2.14-2.29,4.15-4.86,6.29-7.43.29-.57.71-1,1.14-1.57,0,.14.14.14.14.14,0,1.14-.14,2.43-.14,3.72-.43,6-1,14.15,7.01,16.3,6.15,1.57,14.58-4.43,19.16-8.15,7.72-6.15,15.01-13.15,22.02-19.87,1.29-1.14,2.57-2.29,3.72-3.43,0,.29-.14.71-.14,1-1.29,5.72-2.72,11.72-2.86,17.73-.29,6,1.29,10.72,4.86,13.72,3.29,2.86,7.86,4,13.15,3,8.29-1.43,15.87-5.58,23.3-9.44l.86-.43c3.86-2,7.29-4.72,10.58-7.43-.57,1.86-1.14,3.72-1.86,5.43-.57,1.57-1,3-1.57,4.43-.43,1.29-.86,2.72-1.43,4-2.72,7.43-5.72,15.87,1.43,23.3,9.58,9.87,21.73,4.72,29.88,0,13.58-7.72,26.59-16.44,39.32-25.02l8.72-5.72c3.72-2.57,7.15-5.29,11.3-8.58.29-.29.57-.57,1-.86-.43,1.43-.72,2.57-.86,3.86,0,.57,0,1.43-.14,2.14-.29,4.72-.71,9.29,1.86,11.01,3.14,2.14,7.72,1.57,11.87,1l1.86-.14c3.29-.43,6.15-2.29,7.58-3.43l7.15-5.58c11.87-9.29,24.02-19.02,35.89-28.88,4.15-3.43,7.86-7.43,11.44-11.29-.86,2-2,3.86-3,5.72-2.72,5.29-5.72,10.72-7.58,16.44-2.43,7.01-1.57,13.58,2.14,18.01,4,4.43,10.44,6,18.01,4.43,5.72-1.14,10.29-2.86,13.87-5.15l4.57-2.86c10.29-6.29,21.02-12.72,30.45-20.44,6.01-4.86,10.29-4.29,16.73-.43l-.72,1.14c-1.29,2-2.43,3.86-3.43,5.72-2.86,5-5.72,10.15-8.58,15.16-8.86,15.58-18.16,31.6-26.59,47.75-3.29,6-3.86,13.73-4,19.02-.29,7.29,2.29,10.58,4.58,12.01,2.29,1.43,6.43,2.57,12.87-.71,4.43-2.14,10.87-5.72,16.01-10.58,17.3-16.58,34.89-33.6,51.76-50.18l19.87-19.3c1.43-1.43,3-2.86,4.72-4.43,1.29,9.87,4.43,16.3,9.58,19.73,5.58,3.72,13.3,3.86,24.3.29l.86-.29c1.57-.43,3.15-.86,4.58-1.86,18.59-11.01,37.6-22.59,56.33-34.03,2-1.29,3.43-3.15,4.86-4.86.43-.71,1-1.43,1.72-2.14l1.14-1.43-4.72-5.58ZM1477.65,1522.93c1.29-1,3.43-1.43,5.72-1.86.57,0,1.14-.14,1.72-.29.14.57.29,1,.57,1.57.71,2.29,1.43,4.43,1.29,6.15-2.57,21.45-22.45,38.89-47.18,41.89,9.87-18.3,22.3-33.88,37.89-47.47ZM618.39,1669.48c-3.29,35.17-20.3,61.76-50.61,78.78-10.29,5.86-22.73,7.72-31.31,8.29-13.58.86-24.88-5.72-31.31-18.44-6-11.72-4.86-24.16,3.15-36.89,2.86-4.43,7.15-8.86,12.44-12.87,26.16-19.59,57.05-28.31,89.64-37.74l8.15-2.29c0,2,.14,3.86.14,5.72.14,5.43.29,10.58-.29,15.44ZM779.52,1612.86c-1.43,1.14-3.29,2-5.72,2.86-.57.29-1,.43-1.57.71v-.57c-.14-1.29-.14-2.29,0-2.72,9.29-25.02,24.88-43.18,46.32-54.04,2.14-1,4-1.57,5.58-1.57.86,0,1.57.14,2.29.43,2,1,3.43,3.29,4.15,7.01.57,2-.29,5.43-1.43,6.43-14.58,12.44-30.31,25.73-49.61,41.46ZM747.49,1721.37c-13.58,18.59-27.88,36.74-42.03,55.04-2.57,3.15-5.72,6.29-9.15,8.44-3.15,2-7.15,2.72-10.87,4,0-4-.86-8.29.14-11.87,1.57-5.29,4.15-10.58,7.01-15.3,19.44-31.74,46.47-55.9,76.06-77.49.71.57,1.29,1.14,2,1.57-7.72,11.87-14.87,24.16-23.16,35.6ZM1027.43,1611.14c-3.14,3.43-7.15,6.43-10.87,9.44-1.43,1-2.72,2-4,3.15,0-.57.14-1.14.14-1.72.29-2.14.57-4.15,1.29-5.86,12.44-30.74,31.17-57.33,55.47-79.35,4.43-4,8.01-6,10.72-6.15h.43c3.29,0,7.72,2.43,10.58,5,1.14,1,1.14,1.72,1.14,1.86.14,1.43-1.72,3.29-3.14,5l-.57.57c-6.58,7.29-13.01,14.58-19.59,21.88-13.58,15.16-27.59,30.88-41.6,46.18ZM1332.54,1581.69l-.14-.14v-1.57c0-2.29.14-4.29.71-6.15,5.72-17.3,16.87-31.45,34.17-43.18,2.29-1.57,5.29-2.72,8.15-3.14,1.86-.43,3.14-.14,3.72.43.43.57.43,2.14-.29,4-.29.86-.57,1.43-1,1.86-12.58,18.73-29.17,34.03-45.32,47.9Z"/>
    </g>
    <g>
      <polygon class="st0" points="783.51 1491.89 762.89 1512.9 766.49 1513.33 789.34 1493.75 790.09 1489.73 783.51 1491.89"/>
      <polygon class="st0" points="709.57 1489.73 710.31 1493.75 733.16 1513.33 736.76 1512.9 716.15 1491.89 709.57 1489.73"/>
      <path class="st0" d="M749.46,1501.53c-6.24-1.43-10.45-5.18-16.51-4.81,3.48,6.01,8.18,13.51,8.36,15.45h16.51c.44-2.33,5.32-9.49,9.1-15.45-8.46-.37-11.22,3.94-17.46,4.81Z"/>
      <path class="st0" d="M776.49,1489.73c3.98.66,8.15-.23,12.43-2.01l-17.25-15.24-.13.1c-.16,1.36-1.23,2.28-2.72,2.94l7.66,14.21Z"/>
      <path class="st0" d="M752.13,1490.04c5.01,2.06,9.76,3.93,12.77,4.49-3.01-6.61-5.83-12.92-7.19-16.97-2.44.18-5.08.28-7.8.28-2.87,0-5.65-.11-8.2-.31-1.52,4.54-4.1,10.52-7.04,17,2.8-.49,7.28-2.37,12-4.43,1.74-.76,3.71-.78,5.46-.06Z"/>
      <path class="st0" d="M773.69,1489.73l-6.2-13.58c-1.97.65-4.05,1.02-6.27,1.07-.25.03-.5.06-.75.09,3.04,6.42,6.03,13.01,6.55,17.51l6.68-5.08Z"/>
      <path class="st0" d="M723.34,1489.73l7.66-14.21c-1.49-.66-2.56-1.58-2.72-2.94l-.13-.1-17.25,15.24c4.28,1.78,8.45,2.67,12.43,2.01Z"/>
      <path class="st0" d="M732.34,1476.15l-6.56,13.8,6.68,5.08c.52-4.5,3.86-11.31,6.91-17.73-.25-.03-.5-.06-.75-.09-2.22-.05-4.31-.41-6.27-1.07Z"/>
      <ellipse class="st0" cx="749.91" cy="1472.22" rx="19.43" ry="3.39"/>
    </g>
  </g>
  <g>
    <path class="st0" d="M1010.98,1368.6h-21.95c-170.12,0-308.53-138.4-308.53-308.53V511.38c0-170.12,138.4-308.53,308.53-308.53h21.95c170.12,0,308.53,138.4,308.53,308.53v548.7c0,170.12-138.4,308.53-308.53,308.53ZM989.02,215.1c-163.37,0-296.28,132.91-296.28,296.28v548.7c0,163.37,132.91,296.28,296.28,296.28h21.95c163.37,0,296.28-132.91,296.28-296.28V511.38c0-163.37-132.91-296.28-296.28-296.28h-21.95Z"/>
    <g>
      <polygon class="st0" points="1086.38 347.82 1041 394.08 1048.92 395.01 1099.24 351.91 1100.87 343.06 1086.38 347.82"/>
      <polygon class="st0" points="923.59 343.06 925.22 351.91 975.54 395.01 983.46 394.08 938.08 347.82 923.59 343.06"/>
      <path class="st0" d="M1011.42,369.04c-13.74-3.15-23-11.41-36.34-10.6,7.67,13.23,18.02,29.74,18.4,34.01h36.34c.97-5.14,11.71-20.89,20.03-34.01-18.64-.82-24.69,8.68-38.44,10.6Z"/>
      <path class="st0" d="M1070.94,343.06c8.77,1.45,17.95-.5,27.37-4.43l-37.97-33.55-.28.22c-.36,3-2.7,5.02-5.99,6.47l16.87,31.28Z"/>
      <path class="st0" d="M1017.31,343.73c11.03,4.53,21.49,8.64,28.12,9.88-6.63-14.55-12.84-28.46-15.83-37.36-5.37.4-11.19.61-17.18.61-6.32,0-12.44-.24-18.06-.68-3.34,9.99-9.03,23.17-15.5,37.43,6.15-1.08,16.04-5.21,26.42-9.74,3.82-1.67,8.17-1.72,12.03-.13Z"/>
      <path class="st0" d="M1064.76,343.06l-13.66-29.91c-4.78,1.59-9.89,2.4-15.35,2.36l-.12.18c6.7,14.13,13.28,28.65,14.42,38.55l14.71-11.18Z"/>
      <path class="st0" d="M953.91,343.06l16.87-31.28c-3.28-1.45-5.63-3.47-5.99-6.47l-.28-.22-37.97,33.55c9.42,3.93,18.6,5.88,27.37,4.43Z"/>
      <path class="st0" d="M973.74,313.16l-14.44,30.39,14.71,11.18c1.14-9.9,8.5-24.9,15.2-39.03-.06-.09-.06-.09-.12-.18-5.46.05-10.57-.77-15.35-2.36Z"/>
      <ellipse class="st0" cx="1012.42" cy="304.51" rx="42.79" ry="7.45"/>
    </g>
    <path class="st0" d="M1148.4,861.53c-25.88-27.59-55.71-52.41-86.11-76.08,43.24-154.66,73.37-309.18,158.87-309.18h0c3.91-.01,7.77.26,11.55.77,3.44.47,6.64-1.87,7.35-5.27.86-4.22-2.02-7.65-5.71-8.14-19.3-2.57-41.36.34-61.41,10.11-21.1-41.28-57.98-72.87-102.66-87.26l-11.7,9.94c44.81,12.27,81.97,43.22,102.58,83.94-66.76,42.86-101.52,158.03-135.29,277.21-84.25-63.92-162.53-123.91-162.53-214.64,0-70.31,46.25-125.22,105.23-144.65l-12.45-10.58c-74.34,25.05-127.62,95.6-127.62,177.38,0,242.5,416.41,278.84,363.51,529.21-1.16.03-2.29.09-3.46.09h0c-67.83,0-122.09-72.03-186.34-137.08,15.6-32.83,28.41-67.33,40.26-104.61-11.86-9.08-23.89-18.12-35.9-27.2-10.65,36.54-21.33,70.62-33.79,103.5-45.7-41.29-97.53-74.06-162.76-74.06h0c-69.74,0-126.48,56.74-126.48,126.48,0,58.22,39.56,107.35,93.2,122,26.39,95.38,113.94,165.63,217.6,165.63.22,0,.43,0,.65,0,98.14-.27,192.18-60.52,223.93-150.71-11.75,2.73-23.03,3.66-34.63,3.15-28.43,78.55-103.4,134.06-189.95,134.06h0c-95,0-175.58-62.76-202.57-148.98,8.11,1.18,14.62,1.42,21.61,1.27,72.7-1.22,123.72-41.77,162.1-101.81-8.26-8.82-16.37-17.63-24.39-26.26-30.25,62.11-72.6,114.62-141.08,114.62-62.29,0-112.96-50.68-112.96-112.96s50.68-112.97,112.96-112.97h0c55.11,0,99.52,46.04,147.44,97.74h0c14.54,15.69,29.41,31.89,44.99,47.49h0c53.42,53.49,110.48,94.21,186.11,94.21,35.32,0,67.96-14.35,91.93-40.41,21.95-23.87,34.54-55.23,34.54-86.06,0-74.6-74.28-149.61-166.6-119.88ZM1227,1087.54c2.09-11.58,3.21-23.54,3.21-35.84,0-73.68-29.47-130.69-71.71-179.02,78.51-21.6,142.99,42.47,142.99,108.73,0,43.39-28.74,89.19-74.49,106.13Z"/>
  </g>
</svg>