<?xml version="1.0" encoding="UTF-8"?>
<svg style="width: 100%; height: auto;" id="Layer_1" data-name="Layer 1" xmlns="http://www.w3.org/2000/svg" viewBox="0 0 2000 2000">
  <defs>
    <style>
      .cls-1 {
        fill:rgba(33, 31, 93, 0.47);
      }
    </style>
  </defs>
  <path class="cls-1" d="M480.23,896.21c-2.3-.17-4.51-.04-6.72.66-2.31.73-7.62,5.14-13.51,10.52v17.66c6.51-6.78,12.02-12.66,14.44-15.39,3.76-4.24,6.98-7.54,5.79-13.46ZM1442.18,1804.54c-26.37,15.93-49.67,36.38-81.75,43-63.08,13.02-118.29,38.19-181.39,51.96-201.62,43.99-388.6,5.59-546.82-112.6-34.1-25.48-68.94-52.14-102.19-78.4-34.33-27.11-36.52-43.22-54.98-77.56-4.74-8.81-9.96-17.37-15.06-25.99v33.67c18.85,33.82,40.38,65.15,59.31,79.53,11.54,8.77,25.33,15.54,37.34,24.68,38.55,29.33,70.42,61.29,112.37,88.67,153.45,100.15,358.21,119.49,538.91,74.57,45.44-11.3,87.41-29.21,131.63-41.45,15.67-4.34,31.37-5.95,46.82-11.66,31.62-11.69,56.74-34.21,85.36-50.21,23.94-13.39,38.15-17.22,58.83-36.72,3.2-3.01,6.34-6.07,9.42-9.17v-23.42c-4.23,4.54-8.48,8.94-12.74,13.16-26.48,26.22-53.16,38.65-85.08,57.94ZM460,1740.11v22.21c63.15,75.93,147.29,150.17,222.39,176.7,37.33,13.19,73.97,24.11,110.47,32.97h63.14c-50.11-10.08-98.91-24.5-147.46-41.56-91.36-32.1-181.94-106.22-248.54-190.33ZM1249.68,827.67c-231.4-96.48-562.12-79.7-733.77,105.88-17.62,19.05-29.72,38.91-50.6,56.09-1.79,1.47-3.56,2.89-5.32,4.28v13.91c9.21-6.38,19.31-12.62,26.87-19.71,21.18-19.88,35.42-46.01,59.77-67.27,158.08-138.01,421.61-169.4,625.26-105.37,121.04,38.06,274.05,132.51,368.1,233.22v-23.52c-81.34-83.76-198.43-159.19-290.32-197.51ZM485.39,1890.65c-8.62-5.75-17.09-11.7-25.39-17.82v17.58c42.83,29.86,91.13,52.64,138.68,76.13,3.67,1.81,7.34,3.64,11.01,5.46h40.64c-32.5-17.4-65.12-35.42-100.32-51.33-25.05-11.32-40.44-13.88-64.63-30.01ZM1118.75,654.11c-61.31,3.21-122.64-1.63-184.32,1.49-8.67.44-62.76,6.68-65.6,4.46-.26-5.14,8.83-5.83,13.22-6.77,54.85-11.69,142.9-10.94,200.23-9.72,6.52.14,24.58,4.93,28.22-1.41,3.42-6.75-8.36-7.96-13.82-8.57-52.95-5.92-184.91-4.81-233.71,11.5-30.06,10.05-57.15,15.84-86.76,25.04-17.12,5.32-57.06,18.06-71.29,25.51-2.73,1.43-8.83,5.66-8.85,8.52.93,4.37,4.46,5.52,8.97,5.2,8.25-.59,37.97-11.91,47.98-15.26,29.49-9.85,59.2-23.25,91.79-23.62,9.99-.11,22.5,3.16,33.19,3.13,36.47-.08,76.78-5.05,114.59-6.01,66.35-1.67,139.26-5.57,202.97,11.5,115.9,31.05,255.04,106.06,344.44,184.9v-19.78c-41.4-34.56-85.13-64.98-128.97-90.03-69.24-39.55-210.62-104.36-292.28-100.09ZM1483.82,1972h22.74c11.79-9.88,22.76-20.42,33.45-31.19v-22.05c-8.43,9.82-17.01,19.45-26.03,28.12-8.06,7.75-20.57,16.88-30.16,25.12ZM1460.77,885.78c-189.46-140.34-362.46-177.31-607.72-158.45-97.32,7.48-182.97,20.57-265.4,70.51-21.36,12.94-41.19,30.06-62.71,42.2-12.18,6.87-25.23,10.9-37.52,17.05-9.5,4.74-18.66,9.86-27.42,15.39v14.51c19.37-11.96,39.34-19.62,63.92-32.92,33.53-18.14,62.82-41.79,97.43-58.78,114.98-56.45,312.12-66.76,440.9-54.5,181.93,17.32,291.18,87.98,426.83,188.26,17.35,12.83,34.44,23.81,50.92,35.96v-20.42c-7.38-4.56-15.24-9.35-24.32-15.57-18.84-12.91-36.45-29.57-54.91-43.24ZM1511.32,692.32c-25.46-19.46-70.92-44.67-100.29-60.68-21.99-11.98-68.82-33.35-93.42-36.97-6.1-.9-15.99-1.96-13.45,6.06.84,2.64,5.34,5.04,7.94,6.36,14.72,7.46,37.78,12.83,54.35,19.83,34.79,14.7,70.26,36.62,102.7,55.53,8.91,5.19,42.76,28.53,49.82,28.54,15.15.02-3.4-15.43-7.64-18.67ZM629.17,936.83c48.13-31.31,129.51-71.15,189.02-74.99,46.36-2.99,93.09-8.67,139.49-10.46,18.44-.71,44.38,2.34,61.33-.1,4.64-.67,11.96-4.74,7.17-8.54-2.1-1.67-13.49-3.15-16.98-3.39-54.56-3.64-103.44,4.75-156.17,7.51-16.83.88-33.42-2.76-49.77-1.46-59.68,4.76-152.93,55.56-198.49,90.37-21.04,16.08-41.36,37.86-63.22,52.2-19.41,12.74-44.12,20.99-64.48,33.13-5.74,3.42-11.43,7.27-17.06,11.5v15.92c20.16-17.9,34.3-21.5,64.53-37,39.55-20.27,68.23-51.02,104.64-74.71ZM1479.1,1047.13c-76.23-83.91-202.09-151.08-313.1-190.48-39.73-14.11-70.1-18.75-110.91-27.21-14.63-3.03-27.46-8.61-42.9-10.71-44.21-6.03-106.25-3.76-150.37,3.19-8.03,1.26-33.94,4.14-32.98,13.72.49,3.46,4.38,4.75,7.67,5.2,51.38-8.24,107.04-14.81,159.4-11.95,23.76,1.3,32,7.67,52.23,12.78,29.27,7.4,57.24,8.52,87.24,18.63,112.1,37.79,244.22,108.73,323.8,189.82,16.91,17.23,23.21,35.49,37.38,51.55,17.22,19.5,30.59,25.41,43.44,41.25v-22.03c-6.86-7.33-14.52-14.94-23.51-25.2-13.5-15.39-23.36-33.11-37.39-48.55ZM769.97,1610.63c-81.61-68.98-133.19-130.2-138.68-235.37-.94-17.98,3.78-40.73,1.76-56.88-1.37-10.96-10.09-10.59-12.94-1.13-5.22,17.3-4.51,53.96-3.21,72.46,6.95,98.51,56.41,156.48,132.33,221.65,50.78,43.59,102.45,77.88,172.32,93,35.85-3.48,77.16,2.52,112.1-2.96,11.71-1.84,13.68-10.27.42-11.63-14.27-1.47-30.31,1.56-44.95,1.59-40.74.08-68.18.8-106.49-13.26-47.2-17.32-75.99-36.47-112.67-67.48ZM944.23,1713.6c-9.48,6.24,8.44,9.94,13.44,10.56,45.02,5.6,110.96-5.38,153.25-20.47,2.23-.8,6.7-2.41,8.13-3.87,7.25-7.39-5.16-8.98-11.92-8.52-30.26,2.07-61,19.07-89.62,20.97-12.12.8-68.02-2.13-73.27,1.33ZM1497.87,1696.25c-8.68,11.15-51.96,48.57-52.81,55.7-1.49,12.43,11.27,3.73,16.61-.11,34.11-24.5,51.32-52.39,74.67-83.74,1.22-1.64,2.45-3.27,3.67-4.9v-29.99c-7.13,8.95-14.19,18.25-20.94,28.31-7.7,11.48-12.33,23.34-21.2,34.73ZM1050.5,983.02c-164.04-19.41-333.74,58.16-411.15,188.66-22.24,37.5-48.93,77.01-61.97,117.59-11.9,37.06-16.04,73.77-13.63,112.39,4.84,77.55,21.04,129.78,71.93,192.32,30.73,37.77,128.07,123.36,176.31,137.23,36.63,10.53,74.74,23.95,110.76,33.33,32.36,8.43,103.74,8.07,119.65,7.5,42.91-1.52,131.29-33.36,165.02-57.73,8.79-6.35,14.48-16.79-1.96-13.74-9.25,1.72-38.31,19.29-49.33,24.36-66.22,30.46-102.02,32.56-175.16,33.66-45.99.69-82.38-16.4-124.58-29.98-37.46-12.05-54.15-14.04-87.74-36.11-78.23-51.4-158.98-131.46-178.29-219.15-16.03-72.81-16.38-140.34,12.73-210.28,8.81-21.16,18.66-28.37,30.2-46.05,21.52-32.97,28.21-59.54,58.65-90.69,90.98-93.1,224.77-144.24,363.59-131.6,14.99-3.78,5.42-10.49-5.02-11.73ZM543.38,1044.95c21.94-23.11,65.31-57.72,92.16-76.97,19.79-14.18,32.59-16.84,53.39-26.68,16.68-7.88,31.83-18.69,48.66-26.45,75.09-34.61,184.57-37.57,268.2-41.08,42.47-1.79,66.25-5.6,108.8,6.72,19.57,5.66,28.8,15.38,45.89,22.97,17.49,7.77,38.34,13.49,56.52,20.87,88.32,35.84,159.31,86.89,226.42,148.93,4.79,4.43,17.47,20.89,23.98,20.32l4.12-2.54c5.92-7.3-18.17-30.62-23.98-36.44-81.5-81.66-166.8-119.39-275.44-163.1-40.46-16.27-65.58-31.3-113.09-34.22-20.07-1.23-34.51,3.47-53.13,4.6-19.35,1.18-40.22-.78-59.83-.05-40.78,1.53-90.46,6.68-130.99,12.13-74.26,9.98-162.17,60.07-216.94,105.15-22.64,18.63-57.04,46.02-74.4,67.55-19.38,24.05-42.11,48.09-63.72,72.78v22.47c18.26-21.32,38.02-41.71,55.8-62.03,9.79-11.2,17.25-24.06,27.59-34.95ZM1132.74,904.24c.51-1.57-.73-4.9-2.01-6.15-4.79-4.68-59.97-12.97-70.13-13.83-12.19-1.03-23.44.11-34.79.05-91.74-.54-241.3,5.73-313.96,61.18-15.49,11.82-20.73,24.49-32.38,38.11-39.11,45.76-103.75,90.65-129.79,144.73-27.3,56.69-49.97,113.59-59.25,175.34-7.11,47.28-11.19,112.35-1.15,159.03,7.32,34.08,42.49,94.94,65.31,123.55,3.72,4.67,11.43,16.15,16.89,17.71,7.08,2.02,9.64-.45,7.63-6.86-2.55-8.12-20.75-29.03-26.68-38.79-16.52-27.19-43.68-74.69-48.72-104.11-18.03-105.24,12.27-222.54,59.26-318.38,22.58-46.05,69.33-81.67,105.76-118.53,24.02-24.32,41.4-51.52,72.35-69.39,79.43-45.85,259.04-60.5,350.59-46.77,6.58.99,38.76,10.21,41.06,3.11ZM941.07,559.95c19.94-1.63,45.58-.34,64.65-3.09,4.65-.67,11.93-4.7,7.16-8.53-4.65-3.74-31.44-3.53-38.69-3.4-41.64.72-91.38,5.53-132.29,12.45-12.13,2.05-61.09,10.99-68.59,15.98-9.75,6.49-.87,10.84,8.24,10.52,17.31-.61,46.73-9.67,65.64-12.77,30.96-5.09,62.51-8.59,93.88-11.16ZM1510.07,1136.41c-2.08,6.61,13.45,31.11,17.11,39.31,4.9,10.97,9.17,22.71,12.82,35.05v-44.71c-4.45-9.72-9.41-18.44-14.93-25.8-2.97-3.96-12.18-12.77-14.99-3.86ZM1191.01,373.83c-50.06-7.76-98.17-7.13-148.64-8.2-107.27-2.28-217.84-6.16-320.12,28.76-41.11,14.03-97.52,34.54-136.32,52.17-5.18,2.35-16.68,6.08-16.13,12.46l2.87,3.56c3.58.87,6.82-.04,10.24-.83,23.8-5.46,63.48-22.36,88.29-31.12,78.74-27.83,141.28-48.85,228.28-53.1,86.14-4.2,213.12-3.82,296.8,10.99,83.31,14.74,264.76,45.12,330,87.1,4.64,2.98,9.21,6.11,13.74,9.33v-19.61c-2.58-1.85-5.19-3.69-7.82-5.51-29.34-20.24-112.49-41.82-150.23-50.11-60.02-13.19-130.09-26.46-190.94-35.89ZM590.74,54.85c4.62-4.25,2.94-7.05-3.35-7.65-8.4-.8-35.85,7.22-45.7,9.83-28.14,7.47-55.19,17.18-81.68,28.1v13.48c19.34-8.48,39.01-16.28,59.23-22.93,23.55-7.74,48.2-13.07,71.51-20.83ZM1127.1,124.97c-9.97-.31-43.27-1.09-21.31,10.21,108.7,12.29,233.85,23.27,336.33,58.98,29.41,10.25,68.69,35.39,97.87,42.79v-14.73c-41.54-18.9-82.15-38.6-126.9-51.25-81.36-23.01-200.93-43.37-285.99-45.99ZM460,64.66c28.15-12.73,57.62-23.46,91.95-29.78,29.61-5.45,47.46-.78,75.23-2.53,13-.82,26.06-2.42,39.17-4.35h-135.49c-25.59,5.3-48,13.16-70.86,23.08v13.58ZM639.24,86.55c-55.81,17.94-118.68,41.36-179.24,67.23v13.96c27.04-11.77,54.07-22.88,80.07-32.95,85.77-33.23,159.46-58.41,254.78-62.13,114.89-4.48,230.57,1.02,345.54-2.99,133.1,11.04,276.74,20.08,399.61,71.23v-13.88c-118.56-47.93-248.4-60.4-378.02-69.3-164.68,10.58-366.29-21.45-522.73,28.84ZM1077.29,107.16c-49.9,2.79-103.96-.43-154.57,1.37-55.26,1.96-117.85,4.99-172.11,13.99-99.08,16.43-200.21,62.04-290.61,103.39v13.45c71.14-33.51,142.53-66.68,219.51-88.17,108.57-30.31,244.6-31.05,357.78-30.58,34.22.14,66.31-7.27,98.03-6.02,120.34,4.71,300.24,37.38,404.68,91.97v-15.55c-102.18-52.42-246.8-76.36-359.83-85.4-40.24-3.22-64.07-.62-102.88,1.55ZM926.04,35.42c-94.16-.73-209.57-10.67-299.65,20.13-13.4,4.58-25.51,13.54-38.76,18.92-20.29,8.24-43.68,13.62-64.64,21.04-20.98,7.42-42.03,15.7-63,24.5v12.74c7.36-3.15,14.49-6.16,21.3-9.01,35.43-14.81,72.33-25.14,107.99-38.81,25.04-9.6,39.17-18.4,67.27-24.65,63.34-14.08,131.46-19.45,196.41-12.91l280.79-.13c115.15,7.7,239.53,13.59,350.74,43.02,18.84,4.99,37.3,11.12,55.5,18.03v-14.15c-188.33-68.1-416.32-57.19-613.96-58.73ZM916.07,83.12c-93.4,1.93-182.05,6.14-270.64,34.41-59.66,19.03-123.84,44.22-185.43,71.65v14.09c57.37-26.41,115.89-50.78,175.91-70.4,159.48-52.11,334.58-30.42,501.15-40.78,137.36,12.01,279.56,24.85,402.93,82.39v-15.09c-88.44-40.24-185.55-58.64-283.65-70.03-111.32-12.92-227.78-8.55-340.28-6.23ZM1413.1,197.86c-62.46-18.05-131.73-30.85-196.67-39.71-36.59-4.99-81.94-5.89-116.43-14.77-50.13-12.9-80.89-10.59-132.31-9.33-61.67,1.52-124.7,3.56-185.79,12.13-113.01,15.85-219.73,66.83-321.9,116.12v13.67c101.45-47.54,194.32-96.82,310.53-114.61,76.27-11.67,235.04-25.89,307.85-11.98,112,21.39,226.6,32.1,336.37,63.42,7.39,2.11,48.4,13.15,48.51,19.08-1.57,2.1-3.2,2.18-5.76,2.37-14.37,1.05-78.72-19.36-98.12-23.92-33.05-7.77-66.46-14.77-100.03-20.57-101.56-17.55-218.74-35.76-321.62-30.34-69.49,3.66-149.91,9.98-216.34,27.98-90.21,24.45-161.99,64.53-243.38,103.78-5.96,2.87-11.97,5.71-18.03,8.54v13.23c11.08-5.13,22.1-10.36,32.98-15.79,107.87-53.8,194.1-98.68,320.42-113.65,82.48-9.78,177.77-19.18,260.02-8.72,88.54,11.26,181.08,26.41,267.71,46.01,40.57,9.18,81.39,24.1,123.08,25.36,25.7.77,35.15,6.63,58.89,12.63,6.03,1.53,11.61,2.86,16.91,4.12v-15.92c-20.22-4-40.28-8.56-58.99-19.08-27.69-15.56-35.29-20.62-67.91-30.05ZM460,29.6c1.33-.53,2.69-1.06,4.09-1.6h-4.09v1.6ZM1540,61.72c-52.59-15.82-106.87-26.48-162.09-33.72h-186.47c112.32,5.03,239.67,14.8,348.55,47.12v-13.41ZM1062.41,522.7c9.31-3.76,1.18-9.02-5.51-10.24-58.21-10.62-139.1-7.15-198.86-3.32-68.53,4.39-176.16,42.53-237.25,71.93-3.88,1.87-16,7.01-14.26,12.29.55,1.65,4.03,3.32,5.93,3.51,5.91.58,40.09-15,48.82-18.21,68.7-25.2,134.97-50.18,210.03-56.08,37.23-2.93,87.8-6.41,124.51-4.48,14.59.77,55.88,8.92,66.58,4.6ZM1540,30.88c-3.17-.97-6.33-1.93-9.49-2.88h-67.26c26.98,4.9,51.47,11.05,76.76,17.56v-14.68ZM544.88,633.81c3.9-2.75,8.81-6.16,6.03-11.19-3.1-3.95-11.81,1.14-15.33,2.83-21.45,10.26-42.6,25.49-64.2,36.38-3.9,1.96-7.69,3.81-11.39,5.57v13.38c4.62-2.13,9.5-4.43,14.71-6.99,18.83-9.26,53.75-28.37,70.17-39.97ZM1287.79,605.06c-58.57-29-192.78-55.62-258.27-46.21-41.65,5.98-76.94,7.54-118.34,11.56-49.54,4.81-94.42,16.62-144.47,20.92-37.33,3.21-95.04,27.94-129.31,43.54-66.98,30.48-124.98,93.2-177.4,142.64v16.39c85.84-81.3,147.25-149.59,275.61-181.24,22.61-5.57,45.77-6.15,68.79-9.83,31.85-5.09,62.86-13.25,95.38-17.28,31.79-3.94,64-4.73,95.86-7.88,15.67-1.55,31.13-5.73,46.73-7.26,86.37-8.44,177.6,22.37,253.18,56.05,78.69,35.07,158.5,73.29,231.38,117.57,3.54,2.15,8.02,5.5,13.07,9.61v-20.1c-3.91-2.63-7.56-4.83-10.82-6.48-34.77-17.55-63.83-33.83-97.56-52.68-46.74-26.11-95.98-45.64-143.82-69.33ZM1411.9,597.98c-44.27-21.07-77.06-23.72-125.42-27.61-35.22-2.83-58.47-19.65-90.47-26.18-45.08-9.2-91.5-13.91-137.08-11.18-25.32,1.52-44.2-6.07-67.99-7.51-48.67-2.95-120.97,3.51-168.93,12.48-64.83,12.12-122.48,44.99-184.03,66.02-18.89,6.46-41.27,8.79-57.22,20.24-9.45,6.78-17.77,18.25-27.42,26.14-20.08,16.42-46.42,29.76-64.83,47.76-9.54,9.33-16.42,21.05-25.67,30.7-.93.97-1.88,1.94-2.82,2.91v15.85c13.93-14.14,26.64-31.31,40.93-44.25,20.89-18.91,52.3-40.76,75.6-58.99,38.13-29.83,123.94-44.95,172.2-66.21,22.37-9.86,28.73-15.89,55.3-21.97,48.3-11.05,134.31-21.06,183.6-18.73,18.67.88,37.28,8.91,54.8,9.1,9.05.1,22.14-2.69,31.49-3.03,34.28-1.24,87.19,6.01,120.72,13.87,32.08,7.53,60.54,25.39,95.17,27.93,14.95,1.1,27.1-.84,42.66,1.96,54.87,9.88,115.51,50.22,161.27,79.04,24.04,15.14,32.85,25.18,46.28,40.11v-23.14c-26.49-22.98-54.14-35.04-83.86-54.88-15.54-10.37-26.5-21.99-44.24-30.43ZM1044.07,385.01c-97.84-2.69-202.77-1.33-295.68,28.43-57.84,18.52-111.61,47.02-171.78,62.1-36.57,9.16-83.11,26.5-116.61,46.43v13.98c11.03-5.17,25.17-13.31,30.17-15.66,63.81-29.91,134.81-44.48,202.57-68.76,69.1-24.76,114.12-41.73,190.43-49.81,86.73-9.18,227.6-8.34,312.17,10.06,84.24,18.32,188.6,37.64,267.95,66.72,29.23,10.71,53.48,25.94,76.72,42.66v-18.86c-.95-.7-1.9-1.4-2.85-2.11-58.49-43.04-155.17-62.66-228.26-78.53-90.9-19.73-170.58-34.07-264.82-36.66ZM1304.24,446.78c-26.3-6.81-54.8-8.11-80.1-14.59-14.45-3.7-25.45-10.43-41.42-13.54-80.51-15.64-214.61-18.74-296.26-9.47-80.49,9.14-123.71,28.09-195.39,55.8-45.08,17.43-92.72,31.84-137.24,49.85-28.06,11.35-54.79,27.13-83.59,36.86-3.52,1.19-6.92,2.23-10.25,3.18v9.23c38.03-13.67,73.05-27.88,111.62-42.22,61.95-23.03,118.61-40.68,179.82-66.82,84.82-36.21,221.74-41.22,314.13-35.59,35.5,2.16,86.94,5.16,120.78,12.36,22,4.68,13.46,9.21-4.59,8.61-82.69-2.74-158.21-19.95-244.02-14.99-42.5,2.46-154.36,20.6-188.04,41.49-41.58,25.78-91.67,37.44-137.74,56.87-24.93,10.51-48.3,23.63-73.01,34.43-25.2,11.01-52.16,20.94-78.95,31.55v12.64c27.46-11.13,56.02-21.4,85.59-33.73,53.04-22.12,99.81-45.49,156.3-62.59,28.25-8.55,48.93-9.29,77.26-14.16,58.48-10.04,115.56-31.14,175.11-33.7,75.52-3.26,137.29,12.82,209.32,16.49,34.42,1.75,65.94-.92,101.04,3.22,7.84.92,41.32,9.24,45.19,4.38,3.11-6.54-3.64-9.27-9.29-11.29-40.02-14.29-85.77-6.67-126.98-8.27-89.39-3.45-161.63-25.84-255.53-14.74-50.44,5.96-101.63,25.86-150.09,32.3-3.46.46-6.89.54-10.36.38-3.2-2.43,9.36-7.26,10.49-7.73,42.04-17.3,145.91-33.75,192.85-35.66,74.49-3.04,142.35,12.59,214.22,15.07,17.79.61,28.06-5.24,41.3-5.46,17.62-.29,60.24,7.09,77.86,11.8,15.87,4.24,28.81,12.02,44.87,16.41,53.85,14.71,108.77,21.88,158.48,48.67,7.93,4.27,21.06,11,22.12,19.68-3.81,3.3-43.26-15.52-50.35-18.19-40.22-15.11-108.45-38.52-151.37-35.59-39.7,2.71-87.05.14-127.96-1.46-96.28-3.75-192.13-37.61-289.76-17.3-13.77,2.86-24.84,8.78-37.77,12.33-41.61,11.44-89.32,15.54-131.54,26.58-34.37,8.98-89.37,29.58-120.07,45.87-15.95,8.46-29.98,21.13-45.96,28.88-17.12,8.3-38.75,13.05-57.09,20.36-14.92,5.95-31.25,13.01-47.87,20.86v12.97c16.24-8.18,33.25-15.94,51.19-23.36,24.64-10.19,51.9-12.18,73.52-26.49,18.08-11.96,25.97-19.59,47.7-28.81,68.51-29.06,166.99-57.31,242.15-58.43,43.91-.65,89.43-5.19,132.98-3.12,41.17,1.96,69.12,15.4,108.11,20.77,27.21,3.75,71.58,10.77,97.75,10.8,15.59.02,30.83-3.97,48.22-3.18,82.09,3.72,202.53,30.56,278.39,70.12v-15.4c-42.23-20.97-94.83-37.03-138.53-49.07-97.81-26.95-193.03-10.22-292.22-26.94-19.79-3.34-36.94-10.22-56.05-13.82-51.63-9.72-107.18-3.91-159.47-3.7,5.31-5.79,19.22-6.34,27.6-7.27,96.36-10.7,178.95,14.93,273.77,19.26,19.26.88,38.81.57,58.12,1.49,13.65.65,29.67,4.35,43.12,4.53,12.21.16,23.75-2.32,36.58-1.54,30.69,1.88,73.19,14.88,102.56,24.27,19.4,6.2,51.33,21.47,69.24,24.35,7.72,1.24,13.9-1.27,19.66.14,2.97.73,9.06,4.1,15.61,8.05v-18.29c-12.86-11.51-19.31-22.36-38.64-33.19-49.56-27.77-139.36-48.24-197.12-63.21ZM924.8,232.96c-4.33.81-8.55,5.07-6.01,8.51,2.28,3.08,59.42,1.27,68.82,1.57,168.87,5.31,344.72,50.07,505.19,95.31,15.78,4.45,31.67,10.63,47.19,16.12v-18.16c-14.33-5-29.73-9.41-43.49-13.25-163-45.42-334.1-85.71-505.71-90.36-21.58-.59-44.37-3.81-65.99.26ZM945.96,208.66c-19.33,1.04-37.59,6.51-56.6,8.84-29.35,3.6-58.88,3.75-88.67,8.37-83.32,12.91-157.85,54.26-234.96,82.95l-2.56,3.78c2.63,7.53,11.4,4.06,17.61,2.29,69.24-19.74,130.75-59.56,204.66-72.85,37.6-6.76,76.94-5.12,112.29-11.03,15.28-2.55,27.68-9.14,45-10.32,149.45-10.12,323.74,34.66,467.08,69.8,41.54,10.18,88.99,17.44,130.19,32.1v-15.97c-43.34-14.29-87.97-21.37-133.86-32.26-143.7-34.11-310.26-73.78-460.18-65.7ZM1035.69,256.56c-31.9-2.01-66.22-.65-97.93-3.03-14.85-1.11-28.55-7.58-43.41-8.75-35.83-2.83-116.04,7.85-149.54,20.46-42.38,15.96-84.74,39.07-127.99,53.69-31.3,10.59-62.49,12.93-92.34,24.5-22.13,8.58-43.56,18.17-64.48,28.48v13.72c19.69-9.75,40-18.9,61.16-27.26,44.63-17.63,93.7-21.22,138.45-41.28,27.99-12.55,55.92-23.79,83.55-36.89,32.8-15.55,117.5-23.23,154.69-20.65,12.8.89,26.91,5.07,39.9,5.93,32.98,2.19,68.21,1,101.26,3.02,62.93,3.85,133.46,18.28,195.45,30.34,102.83,20,196.64,54.82,297.31,80.64,2.76.71,5.5,1.36,8.23,1.98v-15.46c-95.43-25.04-188.2-58.7-285.61-77.62-69.68-13.53-147.74-27.36-218.7-31.83ZM912.18,1645.4c1.62,5.71,13.92,7.18,19.39,8.09,21.03,3.51,49.31,4.39,70.85,4.98,80.88,2.22,162.13-4.27,225.1-54.59,3.45-2.76,27.64-22.2,14.07-23.26-5.66-.44-37.98,23.73-46.44,28.51-74.99,42.32-168.58,39.6-254.08,32.82-5.3-.42-32.08-7.81-28.89,3.45ZM817.49,1748.22c-.92,1.22-.1,4.34.7,5.81,3.25,5.92,50.42,21.92,60.17,25.06,32.69,10.54,104.35,30.09,137.21,27.09,21.97-2,65.04-12.67,87.74-18.18,41-9.95,101.93-31.73,130.02-60.83,6.65-6.89,12.15-16.07,19.12-23.14,33.65-34.14,79.98-54.42,114.58-85.19,70.43-62.64,125.64-203.26,121.25-291.53-2.72-54.61-21.2-151.89-69.02-188.96-35.46-27.49-63.73-58.94-99.64-85.18-25.06-18.31-83-52.03-113.36-59.38-11.36-2.75-22.83-2.04-34.93-4.43-79.67-15.76-123.38-36.27-210.34-31.86-88.71,4.5-138.33,28.29-212.29,66-19.15,9.76-30.98,11.85-48.43,26.66-78.2,66.37-152.61,197.22-161.9,293.68-4.65,48.29,4.03,85.08,8.26,131.52,2.78,30.45-1.19,35.39,14.64,64.54,15.06,27.72,41.11,71.58,63.38,93.9,51.09,51.21,116.74,97.35,176.95,139.65,50.24,35.3,162.61,59.56,225.58,55.15,57.21-4,188.15-36.17,226.07-76.01,15.44-16.22,23.21-29.65,42.3-45.62,53.39-44.67,106.26-66.09,143.12-126.76,74.48-122.59,103.73-260.11,47.45-394.43-18.78-44.83-32.5-51-67.69-82.56-52.19-46.79-95.82-86.87-162.68-118.12-71.69-33.51-199.34-55.86-279.83-53.01-73,2.58-186.02,22-239.99,69.46-3,2.64-14.1,12.99-5.53,15.54,8.66,2.58,38.77-18.52,48.23-23.45,127.17-66.32,282.26-56.26,416.92-15.64,90.52,27.3,142.89,77.35,208.75,134.94,27.55,24.1,43.38,30.98,60.95,64.71,64.05,122.98,30.38,288.82-46.09,401.43-35.8,52.72-82.26,74.19-130.25,114.43-31.22,26.17-45.27,53.13-83.55,72.76-47.63,24.43-151.89,53.29-206.19,52.03-43.68-1.01-159.26-29.95-191.05-56.7-39.15-32.94-84.24-58.74-123.66-91.96-55.11-46.44-93.55-95.99-118.72-160.67-9.34-68.12-19.51-133.74-5.31-202.08,10.49-50.47,37.79-101.38,65.07-146.19,75.91-124.67,249.04-200.29,405.29-191.33,23.97,1.37,34.69,8.53,55.55,14.27,25.11,6.92,55.2,8.38,78.57,20.46,10.04,5.19,12.65,12.94,21.07,19.9,14.37,11.89,32.49,19.45,45.73,33.57,18.6,19.85,37.31,38.75,56.44,58.31,111.32,113.81,128.76,269.7,32.73,397.15-14.28,18.95-32.18,35.42-46.58,53.72-25.98,33.03-28.23,49.43-70.57,72.49-66.73,36.34-125.12,30.75-199.49,28.08-29.35-1.06-62.22,2.94-90.04-7.14-9.5-3.44-17.54-9.64-26.47-13.54-26.13-11.41-47.81-16.73-68.76-36.76-80.25-76.72-154.64-123.59-161.01-239.18-3.53-64.1-1.33-123.61,26.95-183.46,18.55-39.26,92.17-95.53,132.59-118.3,83.8-47.2,156.44-51.12,253.12-53.17,72.88-1.54,122.09,43.06,167.72,88.14,91.04,89.94,138.21,178.59,104.61,303.43-33.52,124.55-175.84,208.83-313.79,213.77-35.58,1.28-121.02-.89-152.43-10.91-9.17-2.92-38.3-18.35-43.54-17.63-15.01,2.06,6.15,15.36,10.23,17.72,44.22,25.68,90.06,20.5,140.9,22.64,76.83,3.24,133.5-2.53,201.15-37.05,31.78-16.21,69.85-35.99,94.39-60.02,128.01-125.31,116.33-293.65-4.98-418.51-48.71-50.13-120.1-120.72-200.93-115.03-58,4.08-116.75,1.48-173.56,15.67-101.1,25.25-226.91,114.92-248.35,211.4-3.43,15.42-12.01,54.22-12.2,68.24-.09,6.48,3.06,15.58,3.22,22.19.83,34.18-1.29,63.83,5.71,97.98,16.73,81.62,76.93,127.06,139.57,180.76,9.8,8.41,18.29,19.42,28.99,27.71,19.94,15.45,84.11,46.85,109.25,51.13,34.1,5.8,71.99.71,105.8,3.42,13.84,1.11,22.48,5.4,38.19,4.44,17.38-1.06,35.62-3.1,53.15-4.47,43.05-3.36,104.14-33.77,131.98-63.55,11.13-11.91,18.61-26,28.59-38.54,20.18-25.34,43.51-47.38,61.82-74.38,82.93-122.26,68.76-280.03-34.71-388.47-15.63-16.38-40.25-32.57-53.19-47.77-1.3-1.53-7.89-10.57-1.67-8.97,10.08,2.6,45.19,32.73,54.06,41.03,125.43,117.52,131.6,297.17,33.85,431.08-21.06,28.85-46.65,60.35-69.07,88.78-35.18,44.6-66.3,48.11-116.53,69.98-17.29,7.53-31.66,19.02-48.09,25.47-41.93,16.45-99.46,22.07-144.85,19.23-21.2-1.33-29.46-9.41-47.28-15.73-70.05-24.88-105.57-30.23-164.39-77.72-105.46-85.15-157.2-166.79-147.84-298.99,2.27-32.09,26.84-58.65,29.97-89.6,1-9.9-2.43-16.42-11.37-7.25-10.31,31.69-29.45,62.52-33.44,95.44-17.09,141.07,55.14,238.01,170.22,323.5,31.6,23.48,55.4,35.26,93.37,48.98,29.8,10.77,85.96,32.93,115.84,34.73,40.89,2.47,94.75-3.46,133.28-16.02,23.77-7.75,40.92-20.24,62.89-30.08,31.32-14.04,54.07-16.57,82.75-37.61,32.31-23.71,37.12-39.04,59.3-67.69,18.06-23.33,39.74-43.77,56.84-68.4,99.49-143.34,81.58-339.08-60.45-453.48-35.77-28.82-74.83-35.24-110.17-60.76-3.61-2.6-8.59-5.28-7.75-10.2,8.47-.42,16.37,3.05,23.84,6.18,109.62,46.02,179.66,114.79,214.06,219.84,37.27,113.83,4.61,244.44-72.82,338.78-11.79,14.36-27.25,27.58-38.6,41.48-15.86,19.43-.77,18.73,13.82,6.46,26.5-22.29,55.14-58.45,72.53-87.16,62.76-103.65,79.57-229.23,26.05-339.3-3.06-6.28-23.2-37.51-19.68-41.31,10.53,4.1,18.01,15.77,23.52,24.4,76.12,119.05,35.08,308.07-54.43,413.34-37.46,44.06-89.63,63.59-131.08,103.22-17.26,16.5-21.15,30.71-44.39,45.24-41.5,25.93-92.02,38.3-141.84,48.78-38.93,8.19-79.51,7.62-118.1-1.79-38.01-9.27-75.53-19.89-111.5-34.76-2.2-1.19-10.62-.21-11.54,1.01ZM1458.35,1958.09c-4.37,5.05-7.96,9.62-11.3,13.91h16.08c1.81-2.47,3.77-4.89,5.96-7.23,21.96-23.37,47.88-44.18,70.9-67.32v-24.73c-2.53,3.24-5.16,6.48-7.96,9.71-22.8,26.39-51.24,49.67-73.69,75.66ZM1531.5,1972h8.5v-7.72c-2.88,2.71-5.71,5.28-8.5,7.72ZM841.44,681.01c-51.42,3.3-81.03,29.56-129.97,38.46-7.34,1.33-16.66.98-24.06,2.26-20.41,3.55-36.53,13.61-54.94,20.8-13.96,5.45-29.35,8.96-42.66,15.41-21.78,10.55-61.5,40.77-79.7,56.8-4.88,4.3-14.67,11.39-7.32,17.11,3.06-.26,5.55-1.61,8.14-2.93,14.06-7.19,34.64-26.6,49.2-36.42,49.93-33.7,102.25-49.78,162.58-61.42,14.61-2.82,36.6-10.47,50.59-9.72,8.49.45,15.16,3.28,25.02,3.04,15.97-.39,34.99-4.82,51.42-6.03,79.13-5.84,165.11-7.63,244.09,0,144.08,13.92,278.03,84.8,386.12,168.11,15.21,11.72,30.23,27.3,45.68,38.1,6.06,4.24,11.6,6.2,14.39,5.16v-9.22c-.46-.91-.99-1.88-1.64-2.93-9.79-16.04-59.75-53.13-77.59-66.17-88.51-64.64-213.22-127.47-327.33-141.8-86.44-10.86-188.47-12.31-275.4-6.18-24.19,1.71-48.01,7.52-72.26,7.45l.23-4.28c3.53-5.11,57.85-11.66,67.05-12.14,87.7-4.55,183.33-7.62,270.64,0,127.23,11.1,307.23,109.09,396.94,189.75,8.12,7.3,14.16,14.27,19.36,21.11v-24.84c-97.76-92.6-287.89-192.34-421.28-199.47-88.59-4.73-188.85-5.67-277.28,0ZM1437.54,1885.56c-10.76,10.34-18.38,23.31-28.99,33.69-14.75,14.43-38.79,32.81-55.6,47.11-2.36,2.01-4.83,3.88-7.37,5.65h19.61c21.41-16.48,41.3-33.46,56.64-48.27,9.06-8.75,17.23-19.78,26.48-28.47,22.09-20.76,45.71-36.94,65.49-60.62,8.69-10.4,17.44-20.82,26.19-31.26v-27.39c-11.01,13.05-21.77,26.53-32.18,41.3-20.28,28.77-45.58,44.54-70.28,68.27ZM1073.66,754.44c-200.34-24.67-399.06.48-551.93,126.05-23.34,19.17-39.58,48.01-61.73,70.3v15.5c28.69-26.66,48.88-59.76,80.89-83.49,93.94-69.63,185.04-101.89,305.74-116.4,278.53-33.48,480.21,55.5,676.47,223.2,5.82,4.97,11.45,9.99,16.89,15.04v-21.48c-27.45-24.49-57.54-47.34-89.19-70.47-116.62-85.23-225.62-139.59-377.15-158.24ZM460,1789.32v18.78c23.4,22.13,47.36,42.69,70.91,66.99,6.93,7.15,12.55,16.3,19.11,23.15,29.1,30.44,80.74,47.37,117.74,68.9,2.63,1.53,5.18,3.17,7.7,4.85h28.91c-.05-.37-.03-.78.07-1.23,1.9.38,3.79.79,5.68,1.23h47.74c-23.93-6.65-48.13-13.51-73.36-19.9-70.99-18-162.89-97.35-224.48-162.77ZM1340.86,1955.44c2.64-4.71.08-8.09-5.61-7.85-7.72.33-26.51,10.88-35.94,13.83-12.64,3.95-30.09,7.48-48.09,10.58h57.33c13.53-5.2,30.12-12.65,32.3-16.56ZM460,1925.1c26.6,16.81,54.28,32.4,82.52,46.9h37.71c-41.83-19.5-82.11-40.52-120.23-64.95v18.05ZM535.86,1743.6c-1.13-.74-3.31-2.08-5.41-3.06-2.21-1.03-4.92-.49-6.46,1.27h0c-1.24,1.42-1.46,3.35-.57,4.97,1.86,3.35,4.11,6.57,6.66,9.49,19.11,21.81,55.77,51.69,79.64,70.3,129.19,100.72,297.82,132.29,465.89,126.33,105.61-3.74,204.46-34.56,302.13-67.34,14.97-5.02,29.79-7.23,44.06-14.15,14.84-7.19,65.34-44.16,73.79-56.14,4.82-6.83,4.2-14.59-6.28-10.14-13.91,5.91-41.47,32.79-56.81,43.02-28.77,19.19-62.16,27.22-95.79,37.83-86.26,27.22-175.51,51.66-267.73,54.96-179.87,6.43-338.08-36.67-472.54-144.27-18.79-15.04-42.16-40.94-60.59-53.07ZM1374.75,1920.21c6.64-3.27,31.94-16.17,30.42-23.37-10.54-7.37-23.46,5.83-33.17,10.44-32.8,15.58-95.66,28.98-133.18,37.06-210.5,45.33-470.41,21.06-639.81-108.12-60.62-46.23-90.4-85.98-132.1-145.65-2.25-3.21-4.56-6.64-6.92-10.25v25.99c59.45,87.59,139.83,169.13,244.96,210.9,70,27.81,145.7,45.96,223.09,54.78h223.21c42.44-4.81,84.25-12.35,124.75-22.58,27.57-6.96,75.37-17.72,98.73-29.21ZM1396.33,1972h21.77c4.93-4.29,9.77-8.67,14.5-13.17,34.58-32.91,77.59-72.53,106.78-108.65.21-.25.41-.51.62-.76v-26.36c-43.81,53.45-89.63,105.1-143.67,148.95ZM1251.56,537.55c-6.03-.38-18.61-1.86-15.56,6.48,1.35,3.69,12.2,5.54,16.1,6.47,37.66,8.95,75.94,7.52,114.88,17.66,33.57,8.74,61.66,18.46,96.66,26.59,29.69,6.9,53.83,20.57,76.36,36.13v-16.19c-18.15-11.4-37.62-21.62-60.89-29.38-73.39-24.45-149.2-42.79-227.55-47.77ZM1340.44,332.01c-56.94-17.65-125.18-25.66-184.65-35.58-41.94-7-76.56-14.73-120.1-17.45-80-4.99-166.56-12.67-245.23.46-8.1,1.35-39.48,6.07-43.79,9.9-10.01,8.89,5.9,9.43,13.18,8.87,50.11-3.84,89.32-15.19,143.08-13.33,50.18,1.74,106.12,3.66,156.01,7.55,32.22,2.51,56.44,10.23,86.88,15.96,48.81,9.19,97.96,15.89,146.47,26.6,9.43,2.08,57.83,11.57,60.61,17.21,1.56.96-.97,2.62-1.88,2.84-5.07,1.22-25.82-3.56-32.5-4.79-39.72-7.32-79.01-16.29-118.94-22.98-32.17-5.39-53.44-6.14-84.54-16.58-28.17-9.45-66.19-7.61-96.01-9.24-62.4-3.4-126.75-9.23-189-2.84-20.48,2.1-41.25,7.42-61.7,8.74-11.9.76-24.8-.87-36.57-.03-9.05.64-48.71,8.79-54.35,13.43-5.35,4.41-1.96,8.41,4.53,9.13,12.04,1.32,36.12-6.2,49.91-7.53,62.76-6.09,124.54-12.65,187.55-11.92,48.55.56,99.5.72,147.85,4.43,8.17.63,37.65,3.08,42.98,6.15,2,1.15,3.23,1.92,2.69,4.29-15.02,2.92-30.51-.82-45.67-1.47-75.58-3.24-158.98-8.85-233.92-1.33-45.81,4.6-92.59,13.2-138.29,19.14-40.32-10.89-84.39,6.75-122.66,19.51-39.27,13.09-76.44,30.02-112.37,49.08v14.22c55.8-29.51,114.68-54.31,180.05-69.64,32.44-7.61,41.06,2.43,68.49.37,29.76-2.24,65.78-10.92,96.62-14.67,76.25-9.29,145.78-8.39,222.31-6.29,36.9,1.01,62.28,2.62,99.59.09,60.79-4.12,142.85,24.45,204.71,32.42,22.93,2.95,39.57-.27,63.16,4.43,47.69,9.5,94.25,27.28,141.43,38.61,1.21.29,2.43.57,3.64.84v-18.58c-49.02-11.56-98.42-22.52-146.09-37.89-18.84-6.08-34.27-16.16-53.48-22.11ZM1207.88,352.67c-50.76-8.28-90.04-6.62-140.56-8-113.22-3.1-208.13-6.86-320.05,15.47-33.71,6.73-42.45,12.82-71.63,25.2-31.72,13.46-67.79,21.09-99.12,36.33-19.03,9.25-35.04,22.45-53.24,32.79-20.53,11.65-42.5,21.14-63.27,32.48v12.79c25.93-14.55,55-24.57,79.88-39.29,31.22-18.47,40.78-27.17,77.77-40.6,75.91-27.55,131.34-47.98,214.08-58.41,81.92-10.33,160.12-5.47,242.1-3.18,39.73,1.11,72.45-1.03,112.47,4.89,61.06,9.03,126.31,22.11,187.64,32.88,57.88,10.17,109.19,31.97,166.06,43.08v-14.33c-2.29-.51-4.61-1.03-6.97-1.56-55.11-12.5-105.82-35.92-163.76-43.91-55.65-7.68-106.52-17.67-161.39-26.62ZM681.91,370.05c7-7.06-2.46-9.32-9.83-8.9-26.07,1.49-101.38,31.06-126.53,43.09-28.99,13.86-57.44,28.97-85.54,44.87v14.89c50.26-29.44,102.93-55.72,165.51-75.97,10.44-3.38,51.51-13.05,56.4-17.98ZM1270.7,216.92c-100.67-18.94-230.94-39.14-332.95-32.1-42.45,2.93-92.28,7.69-134.25,13.68-91.95,13.13-193.83,55.76-270.58,101.71-22.73,13.61-47.6,25.63-72.91,37.3v14.26c24.01-10.79,47.44-21.81,68.9-34.24,13.89-8.05,24.29-19.24,38.24-26.86,18.21-9.94,43.28-18.94,63.09-26.91,61.9-24.91,118.52-45.02,186.51-53.33,79.36-9.69,162.35-19.69,242.19-12.15,142.95,13.49,282.98,49.44,422.34,78.71,19.61,4.12,39.19,9.66,58.72,16.23v-16.89c-21.49-6.75-43.56-12.33-66.39-16.35-69.59-12.24-134.14-30.11-202.91-43.05ZM1451.87,604.94c-2.79,4.06,2.2,9.28,5.63,11.77,15.47,11.26,42.99,21.66,61.12,33.17,7.27,4.61,14.4,9.63,21.38,14.97v-17.32c-25.16-17.43-52.25-33.16-72.72-41.1-3.03-1.18-13.46-4.33-15.41-1.49ZM1123.2,588.8c-26.38-4.79-52.18-7.46-79.17-6.43-115.19,4.4-277.59,22.74-378.91,72.96-42.39,21.01-59.79,35.77-92.69,66.04-24.89,22.9-53.36,43.23-77.28,66.45-10.94,10.61-19.93,23.03-30.65,33.69-1.47,1.46-2.97,2.91-4.49,4.34v18.22c3.26-2.95,6.43-5.98,9.47-9.11,8.86-9.15,15.26-20.01,24.01-29.2,20.47-21.51,46.6-38.28,69-57.46,19.2-16.44,30.03-34.3,51.74-49.08,95.59-65.08,234.66-87.01,351.72-97.43,52.65-4.69,98.9-11.8,151.65-1.96,132.47,24.73,317.44,109.84,422.4,190.53v-18.65c-8.94-7.12-18.36-14.07-29-20.8-114.51-72.36-249.54-137.02-387.8-162.11ZM531.5,1894.13c-1.06-6.74-41.38-35.14-49.63-42.16-7.49-6.37-14.78-12.73-21.87-19.1v21.12c18.08,15.82,36.22,30.04,51.94,39.67,15.63,9.58,20.36,5.52,19.56.47ZM1136.52,621.64c-19.72-4.96-34.3-12.09-56.2-13.69-106.16-7.75-235.4,12.26-335.25,44.62-39.08,12.66-59.36,26.57-92.93,46.39-8.69,5.13-48.22,23.46-49.09,30.67-.82,6.85,6.16,5.45,11.23,4,9.44-2.7,46.32-22.76,56.13-28.68,27.78-16.76,36.16-24.76,69.67-35.93,38.22-12.74,83.64-22.79,123.38-32.43,56.94-13.81,159.87-20.83,218.7-16.85,23.71,1.61,38.03,10.76,59.36,16.82,63.66,18.08,111.66,29.86,172.91,56.61,73.97,32.3,152.95,79.27,225.55,135.96v-22.08c-82.62-62.96-176.3-113.88-272.7-149.16-43.93-16.08-85.48-24.84-130.78-36.24ZM460,1960.68c6.24,3.81,12.53,7.58,18.88,11.32h32.44c-17.43-9.17-34.57-18.81-51.32-28.95v17.63ZM1296.35,1413.25c40.13-107.61-12.88-220.54-100.38-295.13-42.92-36.59-86.51-58.98-146.92-62.06-101.31-5.18-171.99,14.6-246.69,75.51-25.55,20.83-46.82,48.61-72.17,68.06-11.69,8.97-26.22,13.69-35.71,24.66-26.7,30.88-27.43,113.68-24.46,151.96,1.56,20.06,5.84,42.39,13.19,61.36,14.82,38.25,97.51,121.84,139.12,137.83,89.44,34.37,198.71,50.18,292.21,17.94,161.12-55.57,264.74-177.84,213.02-338.13-27.67-85.75-142.84-218.2-248.63-224.59-139.33-8.42-237.89,17.42-333.87,109.14-8.63,8.25-45.99,46.43-47.24,54.7-.66,4.41-.37,8.78,5.68,8.15,5.98-.62,20.65-19.87,25.76-24.76,71.65-68.5,146.37-127.27,256.62-133.71,95.48-5.57,145.34.34,214.25,61.22,77.43,68.4,132.74,155.36,121.99,256.34-11.94,112.12-102.2,178.35-210.9,218.19-81.99,30.05-221.4,18.66-296.07-24.92-36.51-21.31-61.18-52.61-87.54-82.62-5.75-6.55-13.6-11.78-18.9-18.86-31.52-42.1-32.26-168.8-6.86-213.64,11.47-20.25,27.05-21.26,44.09-33.55,31.36-22.62,57.8-56.04,90.53-79.93,89.86-65.58,231.55-83.45,325.38-14.95,97.42,71.12,168.27,205.83,112.43,316.32-8.84,17.49-15.31,17.95-28.55,29.6-13.2,11.62-24.39,25.07-37.29,36.68-12.02,10.82-40.85,28.99-49.03,39.56-2.33,3.01-4.73,5.89-2.6,9.79,5.2,6.63,27.88-12.26,32.52-15.75,36.17-27.17,92.12-74.47,107.02-114.41ZM1044.79,1333.4c-34.13-46.43-116.62-21.98-107.49,29.48,2.96,16.68,18.9,25.69,36.05,28.83,10.32,1.89,24.6-3.07,25.21-15.93-9.2-15.44-34.05,9.13-43.52-12.43-14.3-32.58,53.09-57.5,72.25-24.67,3.93,6.73,5.43,11.63-.85,33.41-2.12,7.35-18.47,13.69-16.54,19.03,4.95,13.73,26.89-1.97,32.59-12.78,5.7-10.82,9.22-35.53,2.3-44.95ZM1176.7,1275.95c50.1,67.71,16.45,159.56-54,203.7-77.79,48.74-154.2,61.2-233.79,7.48-62.32-42.06-97.63-78.98-91.48-153.76.76-9.24,12.45-45.87,9.19-50.16-7.63-10.05-15.88,14.2-17.04,17.69-19.88,59.38-3.74,121.44,44.32,165.51,59.67,54.72,145.13,89.12,229.15,58.2,72.17-26.56,125.18-60.8,146.06-131.59,19.91-67.52,4.29-111.81-51.33-158.32-40-33.45-91.64-72.23-148.67-75.42-21.1-1.18-88.89,14.59-109.21,22.72-27.57,11.03-69.88,59.94-76.83,86.28-1.97,7.46-1.26,15.98-2.62,23.05-7.49,39.07-18.74,77.83,3.22,115.54,12.9,22.15,82.53,80.15,107.62,91.45,36.42,16.41,91.61,18.34,127.33-.11,69.88-36.08,110.8-63.99,128.21-138.68,6.15-26.37-14.65-71.45-34.11-91.88-3.08-3.24-19.58-19.49-21.62-7.47-1.04,6.11,21.06,33.41,25.29,43.03,11.26,25.56,8.74,77.63-4.41,102.68-18,34.3-52.13,47.68-84.45,67.47-11.46,7.02-17.05,15.47-31.59,19.39-25.17,6.79-79.98,3.52-102.86-9.49-4.31-2.45-9.56-4.75-9.46-10.15,20.33,2.66,39.98,10.23,60.82,11.76,11.72.86,47.38,1.04,56.94-3.67,10.02-4.93,5.13-12.41-5.74-12.65-15.44-.33-33.01,2.65-49.73,1.54-14.13-.94-41.21-9.36-52.79-7.12-.16.03-.32.07-.48.11-7.22,1.89-14.98.85-20.94-3.28-12.33-8.55-25.16-16.63-37.02-25.6-25.91-19.61-44.07-31.94-47.35-64.99-6.08-61.37,18.36-148.93,87.55-175.23,66.84-25.41,132.73-27.17,188.1,19.8,8.77,7.44,16,17.67,25.76,24.64,20.28,14.48,31.68,15.52,47.96,37.54ZM1136.95,1165.26c19.98,14.76,37.54,36.6,55.82,49.89,2.78,2.02,11.77,7.69,14.57,3.66,3.23-4.63-2.98-12.32-5.74-16.1-17.33-23.72-64.73-60.02-92.56-73.62-60.46-29.56-162.66-31.25-217.01,9.95-48.85,37.04-124.57,118.21-135.7,175.28-26.65,136.75,92.7,246.11,241.14,247.06,30.89.2,95.85-12.34,117.93-32.99,4.63-4.33,7.33-12.1-1.63-12.07-6.32.02-33.18,15.47-42.4,18.77-91.13,32.57-198.31-3.59-259.88-67.95-40.2-42.02-54.61-118.42-35.2-170.71,6.36-17.14,40.77-60.77,54.36-76.61,5.05-5.88,11.84-13.21,17.37-18.74,17.35-17.39,57.01-56.53,78.93-64.97,72.38-27.83,150.38-14.88,209.99,29.16ZM1076.35,1248.2c.22-9.15-27.8-20.13-36.49-22.45-25.49-6.82-68.6-6.45-93.43,2.6-10.91,3.98-51.9,26.87-47.58,39.03.69,1.73,2.08,2.39,4.03,2.53,6.83.49,28.72-17.46,37.31-21.78,28.39-14.25,68.99-14.82,99.6-5.89,10.28,3,31.54,17.85,36.56,5.95ZM718.52,1405.85c-10.04-42.46-10.18-105.65,8.85-146,2.63-5.58,23.46-33.37,12.58-36.27-8.81.05-14.14,10.12-18.12,16.34-21.66,33.86-26.11,78.38-25.22,116.91.53,23.11,4.89,48.98,12.36,71.08,2.06,6.11,6.71,23.52,14.62,24.32,2.55.26,4.61-.15,5.49-2.52,2.72-7.38-8.27-34.18-10.55-43.85ZM1102.41,1567.5c35.33-14.53,30.07-24.49,50.4-47.3,21.22-23.82,59.87-45.89,72.16-75.54,24.87-59.98,37.32-137.02-4.41-193.25-11.21-15.1-24.04-20.3-37.93-31.63-74.39-60.69-126.58-107.16-237.05-77.38-8.47,2.28-38.87,10.74-39.61,19.09l1.4,3.36c3.08,1.94,6.37,2.03,9.97,1.57,9.89-1.25,25.34-8.35,36.15-10.91,103.95-24.62,161.52,25.73,230.84,85.16,60.15,51.57,54.58,124.36,28.68,190.25-14.52,36.96-43.73,48.39-68.51,75.84-22.05,24.42-14.19,35.41-53.72,50.29-102.61,38.63-254.69,1.32-317.32-82.6-22.07-29.58-35.41-99.57-34.27-135.19,2.47-77.38,62.25-148.47,125.5-196.42,84.71-64.22,208.87-65.28,292.26,1.42,47.02,37.61,62.45,66.57,86.9,117.57,20.4,42.55,23.32,82.17,12.71,127.58-2.4,10.27-15.53,41.89-14.16,48.53.89,4.31,4.2,4.72,8.31,3.01,6.69-2.77,18.23-37.83,20.49-45.84,28.89-102.51-32.57-219.59-126.22-278.94-88.45-56.05-214.15-43.42-295.23,17.7-81.31,61.3-136.1,147.09-123.55,245.62,3.76,29.55,16.25,83.64,35.64,106.92,72.19,86.64,230.07,126.54,340.56,81.09ZM979.96,1341.69c-3.96,3.83-10.51,4.24-10.51,9.46s4.71,9.46,10.51,9.46,6.11-6.06,10.51-9.46c5.78-4.47,7.76-2.63,14.44,6.39,8.47,11.42,17.6-1.2,12.92-9.61-6.58-11.83-22.43-21.18-37.88-6.24ZM1460.05,1763.84c-8.49,3.98-17.64,6.03-26.5,10.52-16.78,8.49-61.77,37.01-75.68,48.46-6.79,5.59-8.52,14.78,2.08,12.47,15.66-3.42,53.93-32.21,70.29-41.5,16.13-9.16,34.47-15.92,49.9-25.34,19.94-12.17,40.43-31.91,59.87-54.22v-25.18c-27.12,33.09-56.53,63.79-79.95,74.78ZM902.16,1433.36c38.78,27.72,137.98,34.54,180.9,13.61,55.41-27.03,81.68-80.81,60.98-135.65-4.9-12.99-13.25-23.12-19.3-34.94-13.47-26.31-14.42-40.99-41.7-61.11-10.41-7.68-58.34-29.37-70.59-30.62-21.78-2.22-62.62,10.95-83.32,19.17-55.42,22.02-84.26,85.25-88.53,137.03-1.05,12.72,1.95,54.23,12.03,63.1,4.77,4.2,10.79,1.19,11.34-4.81.71-7.81-6.05-23.1-6.85-32.84-3.75-45.61,20.31-117.91,65.99-142.49,31.23-16.8,44.55-12.09,77.74-10.77,33.12,1.32,55.65-3.68,80.47,21.73,9.19,9.41,39.98,65.77,44.92,79.14,25.41,68.81-26.7,129.65-105.4,130.85-46.94.71-117.08-8.65-129.34-57.08-13.91-54.98.39-84.93,54.25-110.61,50.9-24.28,120.11-12.27,145.38,37.05,31.33,61.15-21.93,104.88-88.62,100.68-48.45-3.05-94.14-22.1-81.49-73.3,7.55-30.53,50.37-50.28,83.1-47.71,34.37,2.69,70.67,32.48,59.48,65.44-2.03,5.97-13.74,22.06-3.82,26.5,11.59,5.18,19.21-15.53,21.09-22.91,10.17-39.95-22.21-74.69-64.52-83.02-44.43-8.75-102.43,18.68-111.92,60.22-25.21,110.35,187.31,121.63,210.72,26.74,7.91-32.08-10.37-81.48-42.63-98.65-62.02-33.02-116.01-21-170.38,16.04-42.67,29.08-41.22,119.74.03,149.23ZM995.82,1199.59c-2.42-.28-5.15-1.14-2.45-2.98,6.01.92,16.26-2.65,19.92,2.97-5.57-.42-12.05.64-17.47.02ZM1430.07,1684.55c-16.06,12.79-28.22,29.59-43.11,43.4-99.98,92.7-284.86,151.98-427.43,136.52-181.31-19.66-268.5-113.15-396.24-212.8-20.34-15.87-48.37-30.93-63.51-50.44-18.42-23.74-31.21-51.05-39.78-80.3v40.83c5.35,11.43,11.44,22.59,18.29,33.4,19.53,30.81,43.44,40.04,71.71,62.49,75.29,59.79,139.2,124.37,229.1,168.93,191.04,94.7,452.54,51.83,609.49-79.22,19-15.86,34.56-34.7,53.09-50.86,24.5-21.36,55.97-37.57,78.03-59.8,7.12-7.18,13.88-14.62,20.28-22.29v-25.97c-31.34,40-65.93,61.06-109.93,96.11ZM1434.35,1652.53c-2.64,3.7-7.83,10.77-3.85,14.5,3.29,3.08,9.12-.67,12.04-2.65,20.17-13.67,60.75-53.94,77.17-72.51,7.27-8.23,14.03-17.16,20.28-26.67v-29.88c-9.38,17.83-20.26,33.71-32.67,46.9-21.07,22.39-55.51,45.83-72.98,70.32ZM911.18,793.1c-77.83,3.49-189.89,37.54-256.44,74.09-39.25,21.56-100.16,64.48-127.96,97.05-8.57,10.03-10.24,22.32,5.72,11.13,9.35-6.55,18.36-17.19,27.43-24.64,56.51-46.39,125.81-88.52,199.68-108.73,16.24-4.44,34.03-6.52,49.86-11.92,24.45-8.34,33.61-15.03,62.08-18.86,125.98-16.93,249.03,8.77,362.06,57.81,120.78,52.41,225.34,131.37,306.4,226.94v-24.48c-145.58-170.08-386.53-289.26-628.82-278.4ZM524.22,1677.86c33.93,33.66,89.92,76.72,129.59,106.05,186.85,138.16,421.14,154.98,639.05,62.6,29.57-12.54,37.63-21.62,61.72-38.6,23.86-16.82,52.27-32.5,72.14-53.14,6.76-7.03,12.28-16.16,19.13-23.14,13.38-13.65,34.92-29.86,45.68-44.08,3.22-4.25,8.52-11.59,2.26-15.56-1.99-.49-3.78-.03-5.67.52-4.6,1.33-43.87,39.16-50.59,45.67-71.84,69.61-116.58,107.83-219.14,140.53-180.59,57.59-357.95,41.33-514.5-58.59-56.92-36.33-126.27-90.47-174.69-135.7-6.79-6.34-14.55-21.4-25.55-17.8-4.89,7.31,14.95,25.68,20.57,31.25ZM1276.51,1740.63c-1.1,2.14-1.33,4.21-.66,6.49,2.19,5.85,13.29-.37,16.94-2.29,16-8.42,86.91-63.9,93.7-77.07,2.88-5.59,3.41-10.51-5.27-9.34-6.04.82-51.82,41.5-60.71,48.59-7.34,5.86-41.62,28.98-44,33.63ZM500.2,1139.1c10.11-11.08,24.9-19.59,35.69-30.65,16.25-16.67,29.49-36.89,46.45-53.84,24.88-24.86,54.88-49.29,81.35-73.25,4.11-3.72,18.04-11.47,15.74-18.48-3.78-11.52-32.05,12.66-36.48,16.26-25.58,20.81-55.66,49.53-77.98,73.29-15.3,16.29-28.24,36.08-44.03,51.54-9.06,8.88-20.08,15.67-29.04,24.68-11.91,11.98-21.68,26.21-31.91,39.63v23.33c3.75-3.68,7.65-7.55,11.63-12.46,10.12-12.49,17.72-28.14,28.57-40.04ZM1450,1094.25c-26.16-19.52-49.66-46.59-76.34-67.29-55.98-43.43-135.88-87.18-207.6-104.59-19.38-4.71-30.22-2.52-48.96-3.76-26.56-1.76-52.87-9.1-79.75-10.43-88.65-4.39-240.83,8.44-308.9,64.21-18.23,14.93-32.81,37.2-48.99,54.55-36.1,38.74-72.34,69.58-98.84,115.8-53.48,93.29-93.62,228.67-60.41,332.49,2.27,7.08,4.12,16.8,14.6,14.11.94-2.04,1.84-4.33,1.95-6.57.58-12.13-6.95-35.26-8.36-49.29-11.64-115.59,25.72-250.44,107.96-340.7,19.79-21.72,44.67-40.72,63.91-62.04,9.21-10.21,15.36-22.35,24.09-32.12,61.03-68.22,252.55-85.96,342.64-75.29,55.18,6.53,98.96,12.06,150.47,31.97,93.69,36.22,148.57,89,220.89,149.43,18.56,15.51,30.2,17.95,42.96,40.54,61.33,108.61,58.99,247.27,9.35,359.2-8.46,19.08-19.8,37.17-29.33,55.81-5.76,11.27-8.53,22.68-15.46,33.91-12.32,20-34.15,36.79-43.17,58.29-3.1,7.38-3.6,15.27-7.8,22.87-11.94,21.59-70.96,68.2-94.91,80.47-12.05,6.17-25.45,9.6-37.68,15.41-74.78,35.5-125.53,57.42-211.97,67.78-154.33,18.51-275.71-54.6-384.17-142.46-24.31-19.69-47.14-44.08-71.36-62.81-13.58-10.5-30.43-16.62-43.22-26.86-36.4-29.15-71.07-109.29-76.35-152.48-8.19-67.02,3.55-206.4,31.23-269.27,3.65-8.29,26.17-40.18,21.67-46.6-2.06-.84-4.11-1.65-6.47-1.08-5.81,1.39-20.01,25.2-23.49,31.26-14.8,25.71-21.51,59.94-27.46,88.87-4.42,21.49-8.15,43.52-10.76,65.76v125.32c6.69,47.11,22.29,92.58,51.1,133.41,20.82,29.51,42.48,38.2,70.46,59.14,23.13,17.31,42.76,38.42,64.72,56.83,49.83,41.79,128.6,100.93,191.04,123.98,166.33,61.4,318.86,25.12,467.69-52.75,33.07-17.3,96.07-64.98,109.77-96.99,19.33-45.16,36.64-59.07,75.88-90.13,19.57-15.49,36.28-45.41,49.35-78.99v-49.16c-10.51,38.91-26.21,74.65-47.15,103.22-1.97,2.69-15.03,21.66-19.57,17.49-.5-2.62.39-4.66,1.29-7.05,6.92-18.42,23.82-40.68,32.69-60.25,17.04-37.6,27.77-76.69,32.74-116.27v-106.17c-6.39-52.49-21.99-104.28-45.54-153.03-10.39-21.51-26.73-24.47-44.46-37.7ZM470.37,1206.26c-1.09-8.17-6.33-6.3-10.37-1.93v48.25c4.33-16.14,11.49-37.93,10.37-46.32ZM501.55,1047.56c1.97-8.3-6.74-7.66-12.21-3.43-10.14,9.64-19.93,19.42-29.34,29.35v20.18c2.85-3.3,5.73-6.59,8.66-9.87,6.28-7.04,31.39-29.88,32.9-36.24Z"/>
</svg>