<svg width="32" height="32" viewBox="0 0 32 32" fill="none" xmlns="http://www.w3.org/2000/svg">
<path d="M3.33301 18.0001V8.66675H28.6663V18.0001C28.6663 23.0283 28.6663 25.5426 27.1043 27.1046C25.5422 28.6667 23.028 28.6667 17.9996 28.6667H13.9996C8.97135 28.6667 6.45721 28.6667 4.8951 27.1046C3.33301 25.5426 3.33301 23.0283 3.33301 18.0001Z" stroke="white" stroke-width="1.5" stroke-linecap="round" stroke-linejoin="round"/>
<path d="M3.33301 8.66659L4.13301 7.59992C5.70329 5.50621 6.48842 4.45936 7.61454 3.89631C8.74065 3.33325 10.0492 3.33325 12.6663 3.33325H19.333C21.9502 3.33325 23.2587 3.33325 24.3848 3.89631C25.511 4.45936 26.296 5.50621 27.8663 7.59992L28.6663 8.66659" stroke="white" stroke-width="1.5" stroke-linecap="round" stroke-linejoin="round"/>
<path d="M20 19.3333C20 19.3333 17.0541 23.3333 16 23.3333C14.946 23.3333 12 19.3333 12 19.3333M16 22.6667V14" stroke="white" stroke-width="1.5" stroke-linecap="round" stroke-linejoin="round"/>
</svg>
