<svg width="32" height="32" viewBox="0 0 32 32" fill="none" xmlns="http://www.w3.org/2000/svg">
<path fill-rule="evenodd" clip-rule="evenodd" d="M8.24275 13.7778C6.93907 13.7778 6.66699 14.0337 6.66699 15.2593V17.4815C6.66699 18.7073 6.93907 18.963 8.24275 18.963H11.3943V27.8519C11.3943 29.0775 11.6663 29.3334 12.97 29.3334H16.1215C17.4253 29.3334 17.6973 29.0775 17.6973 27.8519V18.963H21.2359C22.2247 18.963 22.4795 18.7823 22.7511 17.8886L23.4265 15.6663C23.8917 14.1353 23.605 13.7778 21.9113 13.7778H17.6973V10.0742C17.6973 9.25596 18.4027 8.59267 19.273 8.59267H23.7579C25.0615 8.59267 25.3337 8.33687 25.3337 7.11119V4.14823C25.3337 2.92255 25.0615 2.66675 23.7579 2.66675H19.273C14.9217 2.66675 11.3943 5.98316 11.3943 10.0742V13.7778H8.24275Z" stroke="white" stroke-width="1.5" stroke-linejoin="round"/>
</svg>
