<svg width="32" height="32" viewBox="0 0 32 32" fill="none" xmlns="http://www.w3.org/2000/svg">
<path d="M16.0003 29.3334C23.3641 29.3334 29.3337 23.3639 29.3337 16.0001C29.3337 8.63628 23.3641 2.66675 16.0003 2.66675C8.63653 2.66675 2.66699 8.63628 2.66699 16.0001C2.66699 23.3639 8.63653 29.3334 16.0003 29.3334Z" stroke="white" stroke-width="1.5"/>
<path d="M10.667 16.0001C10.667 24.0001 16.0003 29.3334 16.0003 29.3334C16.0003 29.3334 21.3337 24.0001 21.3337 16.0001C21.3337 8.00008 16.0003 2.66675 16.0003 2.66675C16.0003 2.66675 10.667 8.00008 10.667 16.0001Z" stroke="white" stroke-width="1.5" stroke-linejoin="round"/>
<path d="M28 20H4" stroke="white" stroke-width="1.5" stroke-linecap="round" stroke-linejoin="round"/>
<path d="M28 12H4" stroke="white" stroke-width="1.5" stroke-linecap="round" stroke-linejoin="round"/>
</svg>
