<svg width="32" height="32" viewBox="0 0 32 32" fill="none" xmlns="http://www.w3.org/2000/svg">
<path d="M29.3337 16.6669C29.3337 16.0117 29.3266 14.6897 29.3126 14.0326C29.2255 9.94523 29.1819 7.90154 27.6738 6.38763C26.1655 4.87372 24.0666 4.82099 19.8686 4.71551C17.2813 4.6505 14.7194 4.6505 12.1321 4.7155C7.9341 4.82096 5.8351 4.8737 4.32693 6.38762C2.81875 7.90152 2.77518 9.94522 2.68801 14.0326C2.65998 15.3469 2.65999 16.6533 2.68802 17.9675C2.77518 22.055 2.81877 24.0986 4.32694 25.6126C5.8351 27.1265 7.9341 27.1791 12.1321 27.2846C13.2024 27.3115 14.2685 27.3273 15.3337 27.3319" stroke="white" stroke-width="1.5" stroke-linecap="round" stroke-linejoin="round"/>
<path d="M9.33301 11.3333L13.2557 13.6525C15.5426 15.0046 16.4567 15.0046 18.7437 13.6525L22.6663 11.3333" stroke="white" stroke-width="1.5" stroke-linecap="round" stroke-linejoin="round"/>
<path d="M29.3337 23.3333H18.667M29.3337 23.3333C29.3337 22.3997 26.6746 20.6553 26.0003 20M29.3337 23.3333C29.3337 24.2669 26.6746 26.0113 26.0003 26.6667" stroke="white" stroke-width="1.5" stroke-linecap="round" stroke-linejoin="round"/>
</svg>
