<svg width="720" height="104" viewBox="0 0 720 104" fill="none" xmlns="http://www.w3.org/2000/svg">
<g clip-path="url(#clip0_1035_25833)">
<mask id="path-1-inside-1_1035_25833" fill="white">
<path d="M0 12C0 5.37259 5.37258 0 12 0H708C714.627 0 720 5.37258 720 12V104H0V12Z"/>
</mask>
<path d="M0 12C0 5.37259 5.37258 0 12 0H708C714.627 0 720 5.37258 720 12V104H0V12Z" fill="#F1F0E8"/>
<path d="M-83.4388 186.405C98.3847 97.411 160.432 -0.732876 182.918 -75.1871C208.012 -158.281 195.071 -249.1 222.159 -254.739C239.504 -258.352 260.847 -224.44 300.638 -150.099C421.303 75.3284 424.035 135.194 475.445 150.731C547.462 172.513 591.858 70.0409 702.558 72.2497C783.864 73.8758 849.656 130.931 894 181.646" stroke="#F8F7F1" stroke-width="5" stroke-miterlimit="10"/>
<path d="M-87.8052 177.459C88.8988 90.3809 154.51 -5.01762 178.779 -74.7967C205.9 -152.777 193.092 -238.904 219.898 -242.977C237.132 -245.598 258.074 -212.265 296.51 -140.473C413.319 77.6728 416.942 138.283 467.956 153.054C540.391 173.733 582.852 63.8482 694.725 62.3521C697.164 62.3196 699.566 62.3196 701.97 62.3847C781.345 64.5935 848.076 121.675 893.368 172.079" stroke="#F8F7F1" stroke-width="5" stroke-miterlimit="10"/>
<path d="M-92.1571 168.513C79.4138 83.3585 148.537 -9.13189 174.652 -74.4013C203.76 -147.153 191.133 -228.697 217.65 -231.21C234.778 -232.836 255.321 -200.081 292.391 -130.838C405.319 80.0142 409.812 141.565 460.487 155.376C533.275 175.215 573.887 57.601 686.912 52.4516C689.392 52.3378 691.864 52.224 694.336 52.2375C775.023 52.682 845.222 110.943 892.751 162.509" stroke="#F8F7F1" stroke-width="5" stroke-miterlimit="10"/>
<path d="M-96.5189 159.566C69.9433 76.3123 142.471 -13.0479 170.518 -74.0053C201.531 -141.41 189.178 -218.483 215.391 -219.439C232.422 -220.063 252.542 -187.898 288.265 -121.206C397.325 82.3777 402.708 144.739 453.012 157.699C526.186 176.551 564.929 51.3082 679.092 42.5516C681.626 42.3565 684.158 42.1694 686.681 42.0881C768.675 39.4701 842.348 100.208 892.113 152.935" stroke="#F8F7F1" stroke-width="5" stroke-miterlimit="10"/>
<path d="M-100.879 150.62C60.4632 69.2902 136.283 -16.7554 166.383 -73.6097C199.176 -135.551 187.235 -208.257 213.136 -207.669C230.072 -207.287 249.775 -175.713 284.143 -111.571C389.333 84.7301 395.607 147.905 445.537 160.019C519.121 177.874 555.983 44.969 671.274 32.6404C673.862 32.3694 676.453 32.0983 679.052 31.9303C762.347 26.9381 839.495 89.4675 891.503 143.365" stroke="#F8F7F1" stroke-width="5" stroke-miterlimit="10"/>
<path d="M-105.24 141.674C50.9859 62.2654 129.939 -20.238 162.255 -73.2113C196.642 -129.583 185.292 -198.023 210.887 -195.901C227.733 -194.503 247.011 -163.531 280.024 -101.937C381.349 87.0826 388.518 151.059 438.068 162.342C512.056 179.185 547.044 38.5865 663.46 22.7482C666.106 22.3878 668.751 22.0219 671.418 21.7888C756.011 14.4442 836.649 78.7406 890.885 133.803" stroke="#F8F7F1" stroke-width="5" stroke-miterlimit="10"/>
<path d="M-109.598 132.727C41.5059 55.2324 123.389 -23.4985 158.117 -72.8157C193.845 -123.556 183.365 -187.776 208.627 -184.131C225.389 -181.714 244.238 -151.338 275.893 -92.3046C373.352 89.4322 381.423 154.206 430.588 164.661C504.996 180.486 538.098 32.166 655.636 12.8478C658.346 12.4033 661.04 11.948 663.767 11.6418C749.653 1.961 833.779 68.0136 890.252 124.234" stroke="#F8F7F1" stroke-width="5" stroke-miterlimit="10"/>
<path d="M-113.958 123.781C32.0258 48.2022 108.548 -34.4937 153.984 -72.42C181.503 -123.661 181.436 -177.516 206.372 -172.363C223.05 -168.916 241.472 -139.164 271.771 -82.6564C365.36 91.7982 374.333 157.355 423.114 166.998C497.939 181.787 529.155 25.7212 647.815 2.96105C650.574 2.43257 653.336 1.89053 656.13 1.50568C743.314 -10.4869 830.937 57.2867 889.637 114.678" stroke="#F8F7F1" stroke-width="5" stroke-miterlimit="10"/>
<path d="M-118.319 114.835C22.5484 41.1719 101.138 -39.3205 149.851 -72.0243C177.717 -118.715 179.506 -167.241 204.117 -160.593C220.714 -156.111 238.702 -126.987 267.647 -73.0352C357.354 94.1371 367.249 160.469 415.642 169.307C490.887 183.047 520.209 19.214 639.996 -6.95281C642.809 -7.56802 645.628 -8.19679 648.49 -8.65752C736.972 -22.9429 828.067 46.5408 889.013 105.094" stroke="#F8F7F1" stroke-width="5" stroke-miterlimit="10"/>
<path d="M-122.679 105.888C13.0684 34.1417 93.7262 -44.1419 145.716 -71.6286C173.929 -113.772 177.577 -156.956 201.863 -148.826C218.376 -143.299 235.935 -114.802 263.522 -63.4032C349.375 96.4976 360.167 163.583 408.167 171.624C483.841 184.305 511.254 12.6879 632.177 -16.8585C635.045 -17.5578 637.923 -18.2705 640.85 -18.8099C730.63 -35.3745 825.208 35.8031 888.39 95.522" stroke="#F8F7F1" stroke-width="5" stroke-miterlimit="10"/>
<path d="M-127.038 96.9421C3.5925 27.1115 86.3155 -48.9661 141.582 -71.2303C170.141 -108.823 175.643 -146.655 199.604 -137.055C216.033 -130.475 233.167 -102.614 259.399 -53.7767C341.382 98.8338 353.087 166.683 400.691 173.941C476.793 185.543 502.293 6.12924 624.357 -26.7643C627.282 -27.5529 630.217 -28.3443 633.206 -28.9649C724.293 -47.7926 822.347 25.0653 887.766 85.9469" stroke="#F8F7F1" stroke-width="5" stroke-miterlimit="10"/>
<path d="M-131.399 87.993C-5.89301 20.084 78.9114 -53.7902 137.451 -70.8238C166.358 -103.866 173.708 -136.337 197.346 -125.274C213.686 -117.631 230.397 -90.4211 255.271 -44.123C333.387 101.205 346.005 169.797 393.22 176.28C469.755 186.793 493.326 -0.423999 616.539 -36.6456C619.52 -37.521 622.501 -38.3964 625.566 -39.0848C717.959 -60.1646 819.488 14.3573 887.143 76.4043" stroke="#F8F7F1" stroke-width="5" stroke-miterlimit="10"/>
<path d="M-135.759 79.0469C-15.3704 13.0539 71.4911 -58.6142 133.316 -70.4387C162.57 -98.9309 171.76 -126.027 195.094 -113.517C211.339 -104.807 227.63 -78.2467 251.149 -34.4989C325.408 103.547 338.932 172.873 385.742 178.592C462.712 187.994 484.342 -7.04206 608.72 -46.5565C611.753 -47.5214 614.804 -48.4754 617.935 -49.2532C711.639 -72.5608 816.637 3.5954 886.528 66.8186" stroke="#F8F7F1" stroke-width="5" stroke-miterlimit="10"/>
<path d="M-140.111 70.1005C-24.85 6.02366 64.0793 -63.4356 129.183 -70.0376C158.781 -93.9794 169.806 -115.702 192.84 -101.747C208.987 -91.963 224.864 -66.0645 247.028 -24.867C317.408 105.899 331.856 175.958 378.268 180.915C455.677 189.191 475.35 -13.6767 600.899 -56.4569C603.989 -57.5112 607.1 -58.5465 610.287 -59.4029C705.306 -84.9437 813.77 -7.12884 885.913 57.2489" stroke="#F8F7F1" stroke-width="5" stroke-miterlimit="10"/>
<path d="M-144.478 61.1541C-34.3304 -1.00667 56.6694 -68.2599 125.05 -69.6448C154.995 -89.0361 167.847 -105.373 190.585 -89.9712C206.627 -79.1114 222.096 -53.8769 242.892 -15.227C309.405 108.257 324.769 179.023 370.783 183.24C448.627 190.376 466.336 -20.295 593.069 -66.3546C596.213 -67.4956 599.384 -68.6095 602.633 -69.5472C698.978 -97.3049 810.9 -17.8559 885.265 47.6845" stroke="#F8F7F1" stroke-width="5" stroke-miterlimit="10"/>
<path d="M-148.838 52.2077C-43.8105 -8.03695 49.2572 -73.0841 120.915 -69.2492C151.209 -84.0902 165.876 -95.0393 188.33 -78.2091C204.261 -66.268 219.327 -41.6975 238.78 -5.59781C301.424 110.601 317.704 182.074 363.322 185.557C441.603 191.533 457.332 -26.9649 585.261 -76.2469C588.459 -77.4773 591.69 -78.6698 595.018 -79.6861C692.674 -109.666 808.052 -28.5964 884.653 38.0985" stroke="#F8F7F1" stroke-width="5" stroke-miterlimit="10"/>
<path d="M-153.199 43.2616C-53.2879 -15.0643 41.845 -77.8972 116.782 -68.8533C147.407 -79.152 163.898 -84.6997 186.076 -66.4385C201.887 -53.4161 216.56 -29.515 234.656 4.02627C293.431 112.943 310.628 185.113 355.847 187.866C434.564 192.663 448.305 -33.648 577.442 -86.1714C580.695 -87.4939 583.985 -88.7623 587.364 -89.8599C686.365 -122.014 805.201 -39.3286 884.029 28.5399" stroke="#F8F7F1" stroke-width="5" stroke-miterlimit="10"/>
<path d="M-157.559 34.3046C-62.768 -22.1052 34.4328 -82.7402 112.646 -68.4656C143.632 -74.2085 161.912 -74.3738 183.815 -54.6816C199.507 -40.5887 213.79 -17.3434 230.528 13.6584C285.436 115.29 303.549 188.151 348.37 190.189C427.526 193.799 439.267 -40.3231 569.624 -96.0553C572.927 -97.47 576.28 -98.8143 579.722 -99.9932C680.064 -134.35 802.334 -50.0581 883.406 18.9839" stroke="#F8F7F1" stroke-width="5" stroke-miterlimit="10"/>
<path d="M-161.918 25.3606C-72.2492 -29.1141 25.9923 -53.5247 108.515 -68.0595C139.395 -73.4988 159.921 -64.024 181.562 -42.9008C197.127 -27.7238 211.025 -5.14794 226.408 23.3036C277.446 117.659 296.471 191.191 340.897 192.522C420.484 194.904 430.216 -47.023 561.804 -105.964C565.159 -107.466 568.579 -108.888 572.081 -110.149C673.764 -146.69 799.465 -60.7962 882.785 9.40031" stroke="#F8F7F1" stroke-width="5" stroke-miterlimit="10"/>
<path d="M-166.279 16.4173C-81.7212 -36.1603 17.7426 -84.7485 104.382 -67.6689C135.636 -61.506 157.921 -53.6925 179.307 -31.1356C194.739 -14.8745 208.255 7.02917 222.283 32.9331C269.456 120.006 289.39 194.205 333.422 194.837C413.438 195.986 421.153 -53.7359 553.982 -115.87C557.394 -117.463 560.874 -118.954 564.441 -120.301C667.547 -158.815 796.614 -71.5309 882.169 -0.169074" stroke="#F8F7F1" stroke-width="5" stroke-miterlimit="10"/>
<path d="M-170.639 7.47339C-91.2067 -43.1881 10.9998 -93.4105 100.249 -67.2708C131.907 -57.9965 155.916 -43.3534 177.053 -19.3656C192.346 -2.02038 205.488 19.2166 218.158 42.5676C261.464 122.361 282.308 197.409 325.948 197.162C406.389 196.707 411.985 -60.6417 546.164 -125.767C549.624 -127.459 553.168 -129.019 556.798 -130.448C661.227 -171.239 793.755 -82.2662 881.538 -9.7417" stroke="#F8F7F1" stroke-width="5" stroke-miterlimit="10"/>
<path d="M-175 -1.47002C-100.687 -50.2127 4.78548 -102.018 96.1133 -66.8695C233.791 -13.8745 245.702 200.731 318.476 199.485C401.434 198.065 403.131 -81.1251 549.158 -140.595C654.904 -183.659 790.907 -92.9984 880.915 -19.3057" stroke="#F8F7F1" stroke-width="5" stroke-miterlimit="10"/>
</g>
<path d="M-1 12C-1 4.8203 4.8203 -1 12 -1H707C714.18 -1 720 4.8203 720 12C720 5.92487 714.627 1 708 1H12C5.92487 1 1 5.92487 1 12H-1ZM720 104H0H720ZM-1 104V12C-1 4.8203 4.8203 -1 12 -1V1C5.92487 1 1 5.92487 1 12V104H-1ZM720 0V104V0Z" fill="#F1F0E8" mask="url(#path-1-inside-1_1035_25833)"/>
<defs>
<clipPath id="clip0_1035_25833">
<path d="M0 12C0 5.37259 5.37258 0 12 0H708C714.627 0 720 5.37258 720 12V104H0V12Z" fill="white"/>
</clipPath>
</defs>
</svg>
