<svg width="32" height="32" viewBox="0 0 32 32" fill="none" xmlns="http://www.w3.org/2000/svg">
<path d="M25.3334 17.3334V18.6667C25.3334 23.0665 25.3334 25.2663 23.9665 26.6333C22.5997 28.0001 20.3998 28.0001 16.0001 28.0001H13.3334C8.93356 28.0001 6.73367 28.0001 5.36684 26.6333C4 25.2663 4 23.0665 4 18.6667V16.0001C4 11.6003 4 9.40041 5.36684 8.03359C6.73367 6.66675 8.93356 6.66675 13.3334 6.66675H14.6667" stroke="white" stroke-width="1.5" stroke-linecap="round" stroke-linejoin="round"/>
<path d="M18.667 4H24.0003C25.8859 4 26.8287 4 27.4146 4.58579C28.0003 5.17157 28.0003 6.11439 28.0003 8V13.3333M26.667 5.33333L14.667 17.3333" stroke="white" stroke-width="1.5" stroke-linecap="round" stroke-linejoin="round"/>
</svg>
